<svg version="1.2" xmlns="http://www.w3.org/2000/svg" viewBox="0 0 1600 1600" width="512" height="512">
	<style>
		.s0 { fill: #c41e3a } 
		.s1 { fill: #f2ece3 } 
		.s2 { fill: #0d0d0d } 
	</style>
	<g id="Background">
		<path id="Path 1" class="s0" d="m792.43 12.25c-1.58 1.24-4.35 3.71-6.15 5.5-1.8 1.79-3.57 4.26-3.91 5.5-0.35 1.24-1.14 2.58-1.75 2.98-0.62 0.41-7.78 0.75-15.91 0.75-12.14 0.02-15.01 0.3-16 1.56-1.01 1.29-4 1.54-17.89 1.5-14.59-0.03-16.9 0.18-18.42 1.71-1.41 1.41-3.83 1.8-12.33 2.01-7.9 0.2-10.95 0.65-12.07 1.8-1.13 1.15-3.67 1.52-10.25 1.48-6.51-0.03-8.94 0.32-9.5 1.36-0.53 0.99-3.36 1.5-9.82 1.75-6.98 0.27-9.48 0.75-10.82 2.1-1.24 1.24-3.34 1.75-7.18 1.75-3.94 0-5.57 0.41-5.93 1.5-0.38 1.14-2.16 1.5-7.43 1.5-4.82 0-7.38 0.46-8.43 1.5-0.91 0.92-3.37 1.5-6.32 1.51-3.13 0-5.87 0.7-7.82 1.99-1.65 1.09-4.46 1.99-6.25 1.99-1.79 0.01-3.41 0.57-3.61 1.26-0.22 0.74-2.95 1.49-6.75 1.85-3.57 0.33-6.5 1.1-6.64 1.75-0.14 0.63-1.71 1.15-3.5 1.16-1.79 0-4.6 0.9-6.25 1.99-1.65 1.09-4.35 1.97-6 1.95-1.65-0.02-3.67 0.68-4.5 1.55-0.82 0.87-2.85 1.56-4.5 1.51-1.65-0.04-4.12 0.86-5.5 1.99-1.44 1.19-3.9 2.05-5.82 2.03-1.83-0.02-4 0.65-4.82 1.47-0.83 0.82-2.93 1.48-4.68 1.46-1.75-0.03-3.85 0.67-4.68 1.54-0.82 0.87-2.74 1.57-4.25 1.54-1.51-0.02-5.67 1.53-9.25 3.46-3.57 1.93-7.17 3.5-8 3.5-0.82 0-1.72 0.68-2 1.5-0.31 0.92-1.75 1.5-3.75 1.51-1.79 0-4.6 0.9-6.25 1.99-1.65 1.09-3.79 1.99-4.75 1.99-0.96 0.01-1.97 0.69-2.25 1.51-0.28 0.82-1.51 1.48-2.75 1.46-1.24-0.03-2.92 0.67-3.75 1.54-0.82 0.87-2.93 1.57-4.68 1.54-1.75-0.02-3.88 0.64-4.75 1.46-0.86 0.82-2.58 1.72-3.82 1.99-1.24 0.26-2.92 1.18-3.75 2.04-0.82 0.86-2.51 1.54-3.75 1.51-1.24-0.02-2.47 0.64-2.75 1.46-0.28 0.82-1.37 1.5-2.43 1.5-1.06 0-2.52 0.6-3.25 1.34-0.73 0.74-2.44 1.7-3.82 2.12-1.37 0.43-2.95 1.16-3.5 1.61-0.55 0.46-2.8 1.76-5 2.89-2.2 1.13-4.58 2.05-5.28 2.05-0.71-0.01-2.86 1.56-4.79 3.49-1.92 1.93-4.04 3.5-4.71 3.51-0.67 0-2.57 0.9-4.22 1.99-1.65 1.09-3.79 1.99-4.75 1.99-0.96 0.01-1.75 0.46-1.75 1.01 0 0.55-1.24 1.29-2.75 1.65-1.51 0.36-3.87 1.75-5.25 3.09-1.37 1.34-4.64 3.52-7.25 4.85-2.61 1.32-5.23 2.41-5.82 2.41-0.59 0-2.65 1.58-4.57 3.5-1.93 1.93-4.27 3.5-5.22 3.5-0.95 0-3.05 1.36-4.68 3.02-1.63 1.66-3.52 3.01-4.21 3-0.69-0.01-2.94 1.54-5 3.44-2.06 1.9-4.65 3.5-5.75 3.54-1.1 0.04-3.46 1.63-5.25 3.53-1.79 1.91-4.04 3.48-5 3.5-0.96 0.02-4.11 2.27-7 5-2.89 2.73-5.92 4.97-6.75 4.97-0.82 0-3.41 2.06-5.75 4.57-2.34 2.52-5.37 4.83-6.75 5.14-1.37 0.32-4.41 2.53-6.75 4.93-2.34 2.4-5.26 4.6-6.5 4.88-1.24 0.29-6.75 5.02-12.25 10.51-5.5 5.49-10.76 9.98-11.69 9.98-0.92-0.01-17.71 16.08-37.29 35.74-19.58 19.66-35.86 36.65-36.18 37.75-0.31 1.1-5 6.5-10.42 12-5.42 5.5-9.87 10.79-9.89 11.75-0.01 0.96-2.26 3.89-5 6.5-2.73 2.61-4.98 5.65-5 6.75-0.02 1.1-2.29 4.14-5.04 6.75-2.74 2.61-4.98 5.54-4.98 6.5 0.01 0.96-2.23 4-4.98 6.75-2.75 2.75-5.27 6.12-5.61 7.5-0.34 1.37-1.62 3.4-2.84 4.5-1.23 1.1-2.6 3.12-3.04 4.5-0.45 1.37-1.94 3.62-3.31 5-1.38 1.37-3.08 3.85-3.78 5.5-0.7 1.65-2.45 4.12-3.89 5.5-1.44 1.37-2.6 3.29-2.59 4.25 0.02 0.96-1.27 2.99-2.86 4.5-1.58 1.51-3.27 4.05-3.75 5.63-0.47 1.59-1.2 3.05-1.61 3.25-0.41 0.2-1.36 1.83-2.1 3.62-0.74 1.79-2.53 4.37-3.98 5.75-1.45 1.37-2.64 3.51-2.65 4.75-0.01 1.24-0.69 2.48-1.52 2.75-0.82 0.27-1.5 1.29-1.51 2.25 0 0.96-0.9 3.1-1.99 4.75-1.09 1.65-1.99 3.56-1.99 4.25-0.01 0.69-1.3 2.49-2.88 4-1.58 1.51-3.15 3.99-3.5 5.5-0.35 1.51-1.08 2.75-1.63 2.75-0.55 0-1.22 1.35-1.5 3-0.28 1.65-0.84 3.16-1.25 3.36-0.41 0.19-1.8 2.55-3.09 5.25-1.28 2.69-3.53 7.31-5 10.27-1.46 2.96-3 5.55-3.41 5.75-0.41 0.2-0.97 1.72-1.25 3.37-0.28 1.65-0.95 3-1.5 3-0.55 0-1 1.46-1.01 3.25 0 1.79-0.9 4.6-1.99 6.25-1.09 1.65-1.99 3.79-1.99 4.75-0.01 0.96-0.68 1.98-1.51 2.25-0.82 0.27-1.5 1.29-1.51 2.25 0 0.96-0.9 3.1-1.99 4.75-1.09 1.65-1.99 4.46-1.99 6.25-0.01 1.79-0.46 3.25-1.01 3.25-0.55 0-1.26 1.24-1.58 2.75-0.32 1.51-0.97 3.2-1.44 3.75-0.46 0.55-2 3.14-3.41 5.75-1.41 2.61-2.55 5.99-2.53 7.5 0.03 1.51-0.67 3.42-1.54 4.25-0.92 0.87-1.57 3.07-1.54 5.25 0.02 2.16-0.53 4.07-1.31 4.5-0.75 0.41-1.65 2.66-2 5-0.36 2.34-1.32 4.92-2.15 5.75-0.82 0.83-1.48 2.96-1.46 4.75 0.03 1.79-0.67 3.92-1.54 4.75-0.92 0.87-1.57 3.07-1.54 5.25 0.02 2.47-0.47 3.92-1.46 4.25-0.99 0.33-1.49 1.79-1.47 4.25 0.02 2.35-0.74 4.68-2.03 6.25-1.51 1.84-2.05 3.89-2.03 7.75 0.02 3.8-0.38 5.39-1.47 5.75-0.93 0.31-1.49 1.74-1.48 3.75 0.01 1.79-0.65 4.15-1.47 5.25-0.82 1.1-1.5 4.02-1.52 6.5-0.03 2.76-0.81 5.66-2.03 7.5-1.49 2.25-1.99 4.7-1.99 9.75-0.01 5.11-0.38 6.87-1.51 7.25-1.09 0.36-1.5 2-1.5 6 0 3.56-0.53 6.03-1.5 7-1.1 1.1-1.5 3.78-1.5 10 0 6.79-0.35 8.84-1.75 10.18-1.35 1.29-1.83 3.73-2.1 10.75-0.25 6.46-0.76 9.29-1.75 9.82-1.05 0.56-1.4 3.18-1.41 10.5 0 8.05-0.35 10.27-1.99 12.75-1.78 2.68-1.99 4.75-2.03 19.5-0.03 12.98-0.35 16.93-1.52 18.5-1.16 1.56-1.48 5.25-1.47 16.75l0.02 14.75c-5.04 2.14-8.75 4.94-11.5 7.6l-5 4.85v14.1c7.75 7.51 11.46 10.31 13.25 11.07l3.25 1.38c-0.03 26.25 0.29 29.94 1.45 31.5 1.17 1.57 1.49 5.52 1.52 18.5 0.04 14.75 0.25 16.82 2.03 19.5 1.64 2.48 1.99 4.7 1.99 12.75 0.01 7.32 0.36 9.94 1.41 10.5 0.99 0.53 1.5 3.36 1.75 9.82 0.27 7.02 0.75 9.46 2.1 10.75 1.4 1.34 1.75 3.39 1.75 10.18 0 6.22 0.4 8.9 1.5 10 0.97 0.97 1.5 3.44 1.5 7 0 4 0.41 5.64 1.5 6 1.13 0.38 1.5 2.14 1.51 7.25 0 5.05 0.5 7.5 1.99 9.75 1.22 1.84 2 4.74 2.03 7.5 0.02 2.47 0.7 5.4 1.52 6.5 0.82 1.1 1.48 3.46 1.47 5.25-0.01 2.01 0.55 3.44 1.48 3.75 1.09 0.36 1.49 1.95 1.47 5.75-0.02 3.86 0.52 5.91 2.03 7.75 1.29 1.57 2.05 3.9 2.03 6.25-0.02 2.46 0.48 3.92 1.47 4.25 0.99 0.33 1.48 1.78 1.46 4.25-0.03 2.18 0.62 4.38 1.54 5.25 0.87 0.83 1.57 2.96 1.54 4.75-0.02 1.79 0.64 3.92 1.46 4.75 0.83 0.83 1.79 3.41 2.15 5.75 0.35 2.34 1.25 4.59 2 5 0.78 0.43 1.33 2.34 1.31 4.5-0.03 2.18 0.62 4.38 1.54 5.25 0.87 0.83 1.57 2.74 1.54 4.25-0.02 1.51 1.12 4.89 2.53 7.5 1.41 2.61 2.95 5.2 3.41 5.75 0.47 0.55 1.12 2.24 1.44 3.75 0.32 1.51 1.03 2.75 1.58 2.75 0.55 0 1 1.46 1.01 3.25 0 1.79 0.9 4.6 1.99 6.25 1.09 1.65 1.99 3.79 1.99 4.75 0.01 0.96 0.69 1.97 1.51 2.25 0.83 0.28 1.5 1.29 1.51 2.25 0 0.96 0.9 3.1 1.99 4.75 1.09 1.65 1.99 4.46 1.99 6.25 0.01 1.79 0.46 3.25 1.01 3.25 0.55 0 1.22 1.35 1.5 3 0.28 1.65 0.84 3.17 1.25 3.37 0.41 0.2 1.95 2.79 3.41 5.75 1.47 2.96 3.72 7.58 5 10.27 1.29 2.7 2.68 5.06 3.09 5.25 0.41 0.2 0.97 1.71 1.25 3.36 0.28 1.65 0.95 3 1.5 3 0.55 0 1.28 1.24 1.63 2.75 0.35 1.51 1.92 3.99 3.5 5.5 1.58 1.51 2.87 3.31 2.88 4 0 0.69 0.9 2.6 1.99 4.25 1.09 1.65 1.99 3.79 1.99 4.75 0.01 0.96 0.69 1.97 1.51 2.25 0.83 0.28 1.51 1.51 1.52 2.75 0.01 1.24 1.2 3.38 2.65 4.75 1.45 1.38 3.24 3.96 3.98 5.75 0.74 1.79 1.69 3.42 2.1 3.62 0.41 0.2 1.14 1.66 1.61 3.25 0.48 1.58 2.17 4.12 3.75 5.63 1.59 1.51 2.88 3.54 2.86 4.5-0.01 0.96 1.15 2.88 2.59 4.25 1.44 1.38 3.19 3.85 3.89 5.5 0.7 1.65 2.4 4.13 3.78 5.5 1.37 1.38 2.86 3.63 3.31 5 0.44 1.38 1.81 3.4 3.04 4.5 1.22 1.1 2.5 3.13 2.84 4.5 0.34 1.38 2.86 4.75 5.61 7.5 2.75 2.75 4.99 5.79 4.98 6.75 0 0.96 2.24 3.89 4.98 6.5 2.75 2.61 5.02 5.65 5.04 6.75 0.02 1.1 2.27 4.14 5 6.75 2.74 2.61 4.99 5.54 5 6.5 0.02 0.96 4.47 6.25 9.89 11.75 5.42 5.5 10.11 10.9 10.42 12 0.32 1.1 16.57 18.09 36.12 37.75 19.82 19.94 36.31 35.75 37.29 35.74 0.96 0 6.25 4.49 11.75 9.98 5.5 5.49 11.01 10.22 12.25 10.51 1.24 0.28 4.16 2.48 6.5 4.88 2.34 2.4 5.38 4.61 6.75 4.93 1.38 0.31 4.41 2.62 6.75 5.14 2.34 2.51 4.93 4.57 5.75 4.57 0.83 0 3.86 2.24 6.75 4.97 2.89 2.73 6.04 4.98 7 5 0.96 0.02 3.21 1.59 5 3.5 1.79 1.9 4.15 3.49 5.25 3.53 1.1 0.04 3.69 1.64 5.75 3.54 2.06 1.9 4.31 3.45 5 3.44 0.69-0.01 2.6 1.35 4.25 3.02 1.65 1.67 3.79 3.03 4.75 3.02 0.96-0.01 3.21 1.54 5 3.45 1.79 1.9 3.81 3.48 4.5 3.5 0.69 0.01 3.39 1.12 6 2.44 2.61 1.33 5.88 3.51 7.25 4.85 1.38 1.34 3.74 2.73 5.25 3.09 1.51 0.36 2.75 1.1 2.75 1.65 0 0.55 0.79 1 1.75 1.01 0.96 0 3.1 0.9 4.75 1.99 1.65 1.09 3.56 1.99 4.25 1.99 0.69 0.01 2.83 1.59 4.75 3.51 1.93 1.92 4.06 3.5 4.75 3.49 0.69 0 3.05 0.92 5.25 2.05 2.2 1.13 4.45 2.43 5 2.89 0.55 0.45 2.13 1.18 3.5 1.61 1.38 0.42 3.06 1.38 3.75 2.12 0.69 0.74 2.15 1.34 3.25 1.34 1.1 0 2.22 0.67 2.5 1.5 0.28 0.83 1.51 1.48 2.75 1.46 1.24-0.03 2.93 0.65 3.75 1.51 0.83 0.86 2.51 1.78 3.75 2.04 1.24 0.27 2.93 1.16 3.75 1.99 0.83 0.83 2.96 1.48 4.75 1.46 1.79-0.03 3.93 0.67 4.75 1.54 0.83 0.87 2.51 1.57 3.75 1.54 1.24-0.02 2.47 0.63 2.75 1.46 0.28 0.83 1.29 1.5 2.25 1.51 0.96 0 3.1 0.9 4.75 1.99 1.65 1.09 4.46 1.99 6.25 1.99 2 0.01 3.44 0.59 3.75 1.51 0.28 0.83 1.18 1.5 2 1.5 0.83 0 4.43 1.58 8 3.5 3.58 1.92 7.74 3.48 9.25 3.46 1.51-0.03 3.43 0.67 4.25 1.54 0.83 0.87 2.96 1.57 4.75 1.54 1.79-0.02 3.93 0.63 4.75 1.46 0.83 0.83 2.96 1.49 4.75 1.47 1.85-0.02 4.33 0.86 5.75 2.03 1.38 1.13 3.85 2.03 5.5 1.99 1.65-0.05 3.68 0.64 4.5 1.51 0.83 0.87 2.85 1.57 4.5 1.55 1.65-0.02 4.35 0.86 6 1.95 1.65 1.09 4.46 1.99 6.25 1.99 1.79 0.01 3.36 0.53 3.5 1.16 0.14 0.65 3.07 1.42 6.64 1.75 3.8 0.36 6.53 1.11 6.75 1.85 0.2 0.69 1.82 1.25 3.61 1.26 1.79 0 4.6 0.9 6.25 1.99 1.93 1.28 4.69 1.99 7.75 1.99 2.88 0.01 5.34 0.6 6.25 1.51 1.05 1.05 3.61 1.5 8.5 1.5 5.33 0 7.12 0.36 7.5 1.5 0.36 1.09 2 1.5 6 1.5 3.93 0 5.98 0.5 7.18 1.75 1.29 1.35 3.73 1.83 10.75 2.1 6.46 0.25 9.29 0.76 9.82 1.75 0.56 1.04 2.99 1.39 9.5 1.36 6.58-0.04 9.12 0.33 10.25 1.48 1.12 1.15 4.17 1.6 12.07 1.8 8.54 0.21 10.9 0.6 12.25 2.01 1.47 1.53 3.75 1.74 18.43 1.71 14.05-0.04 16.99 0.21 18.25 1.54 1.24 1.31 4.02 1.58 16 1.56 7.97-0.02 15 0.3 15.62 0.71 0.61 0.4 1.4 1.74 1.75 2.98 0.34 1.24 2.11 3.71 3.91 5.5 1.8 1.79 4.62 4.28 6.25 5.53 2.32 1.79 4.23 2.28 8.72 2.25 5.62-0.03 5.88-0.16 11.72-5.78 3.29-3.16 5.99-6.31 6-7 0.02-0.69 0.74-1.92 1.6-2.75 1.25-1.2 4.6-1.5 16.5-1.5 12.38 0 15.02-0.26 15.43-1.5 0.42-1.25 3.25-1.5 17.25-1.51 15.03 0 17.06-0.21 19.75-1.99 2.48-1.64 4.65-1.98 12.5-1.95 7.42 0.03 9.83-0.31 11-1.55 1.16-1.23 3.44-1.57 10-1.5 6.56 0.07 8.84-0.27 10-1.5 1.14-1.21 3.46-1.58 9.68-1.54 6.49 0.03 8.54-0.32 9.93-1.71 1.12-1.11 3.92-1.93 7.71-2.25 3.53-0.3 6.1-1.01 6.32-1.75 0.24-0.84 2.56-1.24 7.11-1.23 4.43 0.01 7.44-0.5 8.75-1.47 1.1-0.82 4.03-1.5 6.5-1.52 2.76-0.03 5.66-0.81 7.5-2.03 1.65-1.09 4.35-1.97 6-1.95 1.65 0.02 3.68-0.68 4.5-1.55 0.96-1.02 3.12-1.57 6-1.53 2.51 0.04 5.39-0.59 6.5-1.42 1.1-0.82 3.43-1.5 5.18-1.52 1.75-0.02 3.88-0.71 4.75-1.53 0.86-0.83 3.48-1.79 5.82-2.15 2.34-0.35 4.59-1.25 5-2 0.41-0.74 2.21-1.35 4-1.36 1.79 0 4.6-0.9 6.25-1.99 1.65-1.09 4.35-2 6-2.03 1.65-0.02 3.9-0.7 5-1.52 1.1-0.82 3.46-1.48 5.25-1.47 2.01 0.01 3.44-0.55 3.75-1.48 0.31-0.92 1.75-1.5 3.75-1.51 1.79 0 4.6-0.9 6.25-1.99 1.65-1.09 3.79-1.99 4.75-1.99 0.96-0.01 1.75-0.46 1.75-1.01 0-0.55 1.24-1.21 2.75-1.47 1.51-0.26 3.43-1.18 4.25-2.05 0.82-0.86 2.85-1.54 4.5-1.49 1.65 0.04 4.12-0.86 5.5-1.99 1.38-1.13 3.18-2.03 4-1.99 0.82 0.05 2.18-0.64 3-1.51 0.82-0.87 2.51-1.57 3.75-1.54 1.24 0.02 2.47-0.63 2.75-1.46 0.31-0.92 1.75-1.5 3.75-1.51 1.79 0 4.6-0.9 6.25-1.99 1.65-1.09 3.79-1.99 4.75-1.99 0.96-0.01 1.97-0.68 2.25-1.51 0.28-0.83 1.63-1.5 3-1.5 1.38 0 2.72-0.67 3-1.5 0.28-0.83 1.29-1.5 2.25-1.51 0.96 0 3.1-0.9 4.75-1.99 1.65-1.09 3.79-1.99 4.75-1.99 0.96-0.01 1.97-0.68 2.25-1.51 0.28-0.83 1.37-1.5 2.43-1.5 1.06 0 2.6-0.67 3.43-1.5 0.82-0.82 2.2-1.5 3.07-1.5 0.86 0 3.26-1.52 5.32-3.37 2.06-1.85 4.88-3.72 6.25-4.16 1.38-0.43 3.09-1.39 3.82-2.13 0.73-0.74 1.85-1.34 2.5-1.33 0.65 0 2.78-0.78 4.73-1.75 1.95-0.97 5.21-3.22 7.25-5.01 2.03-1.79 4.6-3.25 5.7-3.25 1.1 0 2-0.45 2-1 0-0.55 1.24-1.27 2.75-1.59 1.51-0.33 4.44-2.13 6.5-4 2.06-1.88 4.31-3.4 5-3.39 0.69 0.01 2.6-1.35 4.25-3.02 1.65-1.67 3.79-3.03 4.75-3.02 0.96 0.01 3.21-1.54 5-3.45 1.79-1.9 4.15-3.49 5.25-3.53 1.1-0.04 3.69-1.64 5.75-3.54 2.06-1.9 4.43-3.46 5.25-3.46 0.82 0 3.41-2.06 5.75-4.57 2.34-2.52 5.38-4.83 6.75-5.14 1.38-0.32 4.3-2.45 6.5-4.75 2.2-2.3 5.13-4.54 6.5-4.99 1.38-0.44 4.86-3 7.75-5.68 2.89-2.68 5.93-4.87 6.75-4.87 0.82 0 5.89-4.49 11.25-9.98 5.36-5.49 10.54-9.99 11.5-10 0.96-0.01 17.95-16.22 37.75-36.02 19.8-19.8 36-36.67 36-37.5 0-0.83 4.5-6 10-11.5 5.5-5.5 10-10.67 10-11.5 0-0.83 2.24-3.86 4.97-6.75 2.73-2.89 4.98-6.04 5-7 0.02-0.96 2.28-4 5.03-6.75 2.75-2.75 5-5.67 5-6.5 0-0.83 2.25-3.86 5.01-6.75 2.75-2.89 5-5.81 5-6.5-0.01-0.69 1.51-2.94 3.36-5 1.85-2.06 3.73-4.87 4.17-6.25 0.44-1.37 1.79-3.4 2.99-4.5 1.21-1.1 2.54-3.12 2.96-4.5 0.43-1.37 2.29-4.19 4.14-6.25 1.85-2.06 3.36-4.31 3.35-5-0.01-0.69 1.35-2.6 3.02-4.25 1.67-1.65 3.02-3.67 2.99-4.5-0.03-0.83 0.88-2.62 2.01-4 1.13-1.37 2.06-3.17 2.05-4-0.01-0.83 1.08-2.62 2.41-4 1.34-1.37 3.58-4.64 4.99-7.25 1.4-2.61 2.55-5.42 2.55-6.25 0-0.83 0.68-1.72 1.5-2 0.82-0.28 1.52-1.51 1.54-2.75 0.02-1.24 1.6-3.94 3.5-6 1.9-2.06 3.46-4.65 3.46-5.75 0-1.1 0.68-2.22 1.5-2.5 0.82-0.28 1.5-1.4 1.5-2.5 0-1.1 0.68-2.67 1.5-3.5 0.82-0.83 1.5-2.06 1.51-2.75 0-0.69 0.9-2.6 1.99-4.25 1.09-1.65 1.99-3.79 1.99-4.75 0.01-0.96 0.69-1.97 1.51-2.25 0.82-0.28 1.5-1.4 1.5-2.5 0-1.1 0.68-2.67 1.5-3.5 0.82-0.83 1.5-2.06 1.51-2.75 0-0.69 0.9-2.6 1.99-4.25 1.09-1.65 1.99-4.46 1.99-6.25 0.01-2 0.59-3.44 1.51-3.75 0.82-0.28 1.5-1.29 1.51-2.25 0-0.96 0.9-3.1 1.99-4.75 1.09-1.65 1.99-3.79 1.99-4.75 0.01-0.96 0.49-1.86 1.07-2 0.58-0.14 1.36-2.21 1.75-4.61 0.38-2.4 1.27-4.87 1.98-5.5 0.72-0.63 1.27-1.81 1.22-2.64-0.04-0.83 0.86-2.62 1.99-4 1.13-1.37 2.03-3.17 1.99-4-0.05-0.83 0.64-2.17 1.51-3 0.92-0.87 1.57-3.07 1.54-5.25-0.02-2.47 0.47-3.92 1.46-4.25 0.92-0.31 1.5-1.75 1.51-3.75 0-1.79 0.9-4.6 1.99-6.25 1.09-1.65 1.97-4.35 1.95-6-0.02-1.65 0.68-3.67 1.55-4.5 0.92-0.87 1.57-3.07 1.54-5.25-0.02-2.47 0.47-3.92 1.46-4.25 0.99-0.33 1.49-1.79 1.47-4.25-0.02-2.35 0.74-4.68 2.03-6.25 1.13-1.38 2.03-3.85 1.99-5.5-0.05-1.65 0.64-3.67 1.51-4.5 1.02-0.96 1.57-3.12 1.53-6-0.04-2.51 0.59-5.39 1.42-6.5 0.82-1.1 1.5-3.35 1.52-5 0.03-1.65 0.94-4.35 2.03-6 1.27-1.91 1.97-4.63 1.95-7.5-0.03-2.86 0.54-5.05 1.55-6 1.13-1.06 1.57-3.25 1.53-7.5-0.04-3.83 0.47-6.72 1.42-8 0.85-1.14 1.49-4.14 1.49-7 0-3.57 0.59-5.71 2.06-7.5 1.72-2.09 2.05-3.83 1.99-10.5-0.06-6.09 0.3-8.36 1.51-9.5 1.2-1.13 1.58-3.45 1.55-9.5-0.03-6.35 0.37-8.62 1.95-11 1.62-2.45 1.99-4.74 2.03-12.5 0.02-6.79 0.46-10.07 1.52-11.5 1.18-1.58 1.48-5.48 1.47-18.75-0.02-14.01 0.23-16.83 1.48-17.25 1.24-0.41 1.5-3.06 1.5-15.5 0-8.25 0.22-15.67 0.5-16.5 0.28-0.83 1.4-1.5 2.5-1.5 1.1 0 4.69-2.59 7.97-5.75l5.98-5.75v-14c-9.26-8.91-12.85-11.5-13.95-11.5-1.1 0-2.22-0.67-2.5-1.5-0.28-0.83-0.5-8.25-0.5-16.5 0-12.44-0.26-15.09-1.5-15.5-1.25-0.42-1.5-3.24-1.48-17.25 0.01-13.27-0.29-17.17-1.47-18.75-1.06-1.43-1.5-4.71-1.52-11.5-0.04-7.76-0.41-10.05-2.03-12.5-1.58-2.38-1.98-4.65-1.95-11 0.03-6.05-0.35-8.37-1.55-9.5-1.21-1.14-1.57-3.41-1.51-9.5 0.06-6.67-0.27-8.41-1.99-10.5-1.47-1.79-2.06-3.93-2.06-7.5 0-2.86-0.64-5.86-1.49-7-0.95-1.28-1.46-4.17-1.42-8 0.04-4.25-0.4-6.44-1.53-7.5-1.01-0.95-1.58-3.14-1.55-6 0.02-2.87-0.68-5.59-1.95-7.5-1.09-1.65-2-4.35-2.03-6-0.02-1.65-0.7-3.9-1.52-5-0.83-1.11-1.46-3.99-1.42-6.5 0.04-2.88-0.51-5.04-1.53-6-0.87-0.83-1.56-2.85-1.51-4.5 0.04-1.65-0.86-4.12-1.99-5.5-1.29-1.57-2.05-3.9-2.03-6.25 0.02-2.46-0.48-3.92-1.47-4.25-0.99-0.33-1.48-1.78-1.46-4.25 0.03-2.18-0.62-4.38-1.54-5.25-0.87-0.83-1.57-2.85-1.55-4.5 0.02-1.65-0.86-4.35-1.95-6-1.09-1.65-1.99-4.46-1.99-6.25-0.01-2-0.59-3.44-1.51-3.75-0.99-0.33-1.48-1.78-1.46-4.25 0.03-2.18-0.62-4.38-1.54-5.25-0.87-0.83-1.56-2.17-1.51-3 0.04-0.83-0.86-2.62-1.99-4-1.13-1.37-2.03-3.17-1.99-4 0.05-0.83-0.5-2.01-1.22-2.64-0.71-0.63-1.6-3.1-1.98-5.5-0.39-2.4-1.17-4.47-1.75-4.61-0.58-0.14-1.06-1.04-1.07-2 0-0.96-0.9-3.1-1.99-4.75-1.09-1.65-1.99-3.79-1.99-4.75-0.01-0.96-0.69-1.98-1.51-2.25-0.92-0.31-1.5-1.75-1.51-3.75 0-1.79-0.9-4.6-1.99-6.25-1.09-1.65-1.99-3.56-1.99-4.25-0.01-0.69-0.69-1.92-1.51-2.75-0.82-0.83-1.5-2.4-1.5-3.5 0-1.1-0.68-2.23-1.5-2.5-0.82-0.27-1.5-1.29-1.51-2.25 0-0.96-0.9-3.1-1.99-4.75-1.09-1.65-1.99-3.56-1.99-4.25-0.01-0.69-0.69-1.92-1.51-2.75-0.82-0.83-1.5-2.4-1.5-3.5 0-1.1-0.68-2.23-1.5-2.5-0.82-0.27-1.5-1.4-1.5-2.5 0-1.1-1.56-3.69-3.46-5.75-1.9-2.06-3.48-4.76-3.5-6-0.02-1.24-0.72-2.48-1.54-2.75-0.82-0.27-1.5-1.17-1.5-2 0-0.83-1.15-3.64-2.55-6.25-1.41-2.61-3.65-5.87-4.99-7.25-1.33-1.37-2.42-3.17-2.41-4 0.01-0.83-0.92-2.62-2.05-4-1.13-1.37-2.04-3.17-2.01-4 0.03-0.83-1.32-2.85-2.99-4.5-1.67-1.65-3.03-3.56-3.02-4.25 0.01-0.69-1.5-2.94-3.35-5-1.85-2.06-3.71-4.87-4.14-6.25-0.42-1.37-1.75-3.4-2.96-4.5-1.2-1.1-2.55-3.12-2.99-4.5-0.44-1.37-2.32-4.19-4.17-6.25-1.85-2.06-3.37-4.31-3.36-5 0-0.69-2.25-3.61-5-6.5-2.76-2.89-5.01-5.92-5.01-6.75 0-0.83-2.25-3.75-5-6.5-2.75-2.75-5.01-5.79-5.03-6.75-0.02-0.96-2.27-4.11-5-7-2.73-2.89-4.97-5.92-4.97-6.75 0-0.83-4.5-6-10-11.5-5.5-5.5-10-10.67-10-11.5 0-0.83-16.2-17.7-36-37.5-19.8-19.8-36.79-36.01-37.75-36.02-0.96-0.01-6.14-4.51-11.5-10-5.36-5.49-10.43-9.98-11.25-9.98-0.82 0-3.86-2.19-6.75-4.87-2.89-2.68-6.37-5.24-7.75-5.68-1.37-0.45-4.3-2.69-6.5-4.99-2.2-2.3-5.12-4.43-6.5-4.75-1.37-0.31-4.41-2.62-6.75-5.14-2.34-2.51-4.93-4.57-5.75-4.57-0.82 0-3.19-1.56-5.25-3.46-2.06-1.9-4.65-3.5-5.75-3.54-1.1-0.04-3.46-1.63-5.25-3.53-1.79-1.91-4.04-3.46-5-3.45-0.96 0.01-3.1-1.35-4.75-3.02-1.65-1.67-3.56-3.03-4.25-3.02-0.69 0.01-2.94-1.51-5-3.39-2.06-1.87-4.99-3.67-6.5-4-1.51-0.32-2.75-1.04-2.75-1.59 0-0.55-0.9-1-2-1-1.1 0-3.67-1.46-5.7-3.25-2.04-1.79-5.3-4.04-7.25-5.01-1.95-0.97-4.11-1.75-4.8-1.75-0.69 0.01-1.81-0.59-2.5-1.33-0.69-0.74-2.37-1.7-3.75-2.13-1.37-0.44-4.19-2.31-6.25-4.16-2.06-1.85-4.43-3.37-5.25-3.37-0.82 0-2.18-0.68-3-1.5-0.82-0.82-2.4-1.5-3.5-1.5-1.1 0-2.22-0.68-2.5-1.5-0.28-0.82-1.29-1.5-2.25-1.51-0.96 0-3.1-0.9-4.75-1.99-1.65-1.09-3.79-1.99-4.75-1.99-0.96-0.01-1.97-0.69-2.25-1.51-0.28-0.82-1.62-1.5-3-1.5-1.37 0-2.72-0.68-3-1.5-0.28-0.82-1.29-1.5-2.25-1.51-0.96 0-3.1-0.9-4.75-1.99-1.65-1.09-4.46-1.99-6.25-1.99-2-0.01-3.44-0.59-3.75-1.51-0.28-0.82-1.51-1.48-2.75-1.46-1.24 0.03-2.93-0.67-3.75-1.54-0.82-0.87-2.18-1.56-3-1.51-0.82 0.04-2.62-0.86-4-1.99-1.38-1.13-3.85-2.03-5.5-1.99-1.65 0.05-3.68-0.63-4.5-1.49-0.82-0.87-2.74-1.79-4.25-2.05-1.51-0.26-2.75-0.92-2.75-1.47 0-0.55-0.79-1-1.75-1.01-0.96 0-3.1-0.9-4.75-1.99-1.65-1.09-4.46-1.99-6.25-1.99-2-0.01-3.44-0.59-3.75-1.51-0.31-0.93-1.74-1.49-3.75-1.48-1.79 0.01-4.15-0.65-5.25-1.47-1.1-0.82-3.35-1.5-5-1.52-1.65-0.03-4.35-0.94-6-2.03-1.65-1.09-4.46-1.99-6.25-1.99-1.79-0.01-3.59-0.62-4-1.36-0.41-0.75-2.66-1.65-5-2-2.34-0.36-4.93-1.33-5.75-2.15-0.82-0.82-2.96-1.51-4.75-1.53-1.79-0.02-4.15-0.7-5.25-1.52-1.11-0.83-3.99-1.46-6.5-1.42-2.88 0.04-5.04-0.51-6-1.53-0.82-0.87-2.85-1.57-4.5-1.55-1.65 0.02-4.35-0.86-6-1.95-1.84-1.22-4.74-2-7.5-2.03-2.47-0.02-5.4-0.7-6.5-1.52-1.31-0.97-4.32-1.48-8.75-1.47-4.55 0.01-6.87-0.39-7.11-1.23-0.22-0.74-2.79-1.45-6.32-1.75-3.83-0.32-6.55-1.12-7.63-2.25-1.35-1.4-3.35-1.74-9.94-1.71-6.29 0.04-8.61-0.33-9.75-1.54-1.16-1.23-3.44-1.57-10-1.5-6.56 0.07-8.84-0.27-10-1.5-1.17-1.24-3.58-1.58-11-1.55-7.85 0.03-10.02-0.31-12.5-1.95-2.69-1.78-4.72-1.99-19.75-1.99-13.98-0.01-16.84-0.26-17.28-1.51-0.45-1.24-3.11-1.5-15.5-1.5-11.97 0-15.27-0.3-16.47-1.5-0.82-0.82-1.51-2.06-1.53-2.75-0.01-0.69-2.71-3.84-6-7-5.88-5.66-6.06-5.75-11.82-5.75-4.54 0-6.48 0.5-8.72 2.25z"/>
		<path id="Path 2" class="s1" d="m748.58 35.5c-0.48 1.26-3.39 1.49-17.83 1.46-14.51-0.04-17.49 0.2-18.75 1.54-1.17 1.24-3.58 1.58-11 1.55-7.85-0.03-10.02 0.31-12.5 1.95-2.38 1.58-4.65 1.98-11 1.95-6.05-0.03-8.37 0.35-9.5 1.55-1.16 1.22-3.51 1.58-10.25 1.54-6.92-0.03-8.85 0.27-9.25 1.46-0.36 1.09-1.99 1.5-5.93 1.5-3.83 0-5.94 0.51-7.18 1.75-1.27 1.27-3.69 1.83-8.82 2.02q-7.06 0.28-8.57 1.8c-0.92 0.94-3.23 1.5-6 1.46-2.51-0.04-5.39 0.59-6.5 1.42-1.1 0.82-3.35 1.5-5 1.52-1.65 0.03-4.35 0.94-6 2.03-1.91 1.27-4.63 1.97-7.5 1.95-2.86-0.03-5.05 0.54-6 1.55-0.83 0.87-2.85 1.56-4.5 1.51-1.65-0.04-4.12 0.86-5.5 1.99-1.44 1.19-3.9 2.05-5.82 2.03-1.83-0.02-4 0.65-4.82 1.47-0.83 0.82-2.93 1.48-4.68 1.46-1.75-0.03-3.85 0.67-4.68 1.54-0.83 0.87-2.93 1.57-4.68 1.54-1.75-0.02-4 0.73-5 1.67-1 0.94-3.74 1.95-6.08 2.25-2.35 0.3-4.26 0.88-4.25 1.29 0 0.41-1.34 0.98-2.99 1.25-1.65 0.27-3.34 1.11-3.75 1.85-0.41 0.75-2.66 1.65-5 2-2.34 0.36-4.96 1.33-5.82 2.15-0.87 0.82-2.33 1.48-3.25 1.46-0.92-0.03-2.35 0.67-3.18 1.54-0.87 0.92-3.07 1.57-5.25 1.54-2.47-0.02-3.92 0.47-4.25 1.46-0.28 0.82-1.17 1.5-2 1.5-0.83 0-3.64 1.15-6.25 2.55-2.61 1.41-5.18 2.98-5.7 3.5-0.52 0.52-1.98 0.95-3.25 0.95-1.26 0-2.52 0.68-2.8 1.5-0.28 0.82-1.29 1.5-2.25 1.51-0.96 0-2.91 0.9-4.33 2-1.5 1.16-4.11 1.99-6.25 1.99-2.37 0-3.85 0.53-4.17 1.5-0.28 0.82-1.29 1.49-2.25 1.48-0.96-0.01-2.65 0.65-3.75 1.47-1.1 0.82-2.79 1.5-3.75 1.52-0.96 0.02-3.21 1.54-5 3.38-1.79 1.85-4.49 3.65-6 4-1.51 0.36-2.75 1.1-2.75 1.65 0 0.55-0.79 1-1.75 1.01-0.96 0-3.1 0.9-4.75 1.99-1.65 1.09-3.85 1.99-4.89 1.99-1.05 0.01-2.06 0.69-2.25 1.51-0.2 0.82-1.37 1.5-2.6 1.5-1.23 0-3.93 1.57-6 3.5-2.07 1.93-4.32 3.48-5.01 3.46-0.69-0.03-1.92 0.65-2.75 1.51-0.83 0.86-2.51 1.78-3.75 2.04-1.24 0.27-3.26 1.57-4.5 2.89-1.24 1.33-3.38 2.67-4.75 2.99-1.38 0.32-3.17 1.28-4 2.14-0.83 0.86-2.06 1.54-2.75 1.51-0.69-0.02-2.94 1.52-5 3.42-2.06 1.9-4.61 3.48-5.67 3.5-1.06 0.02-3.5 1.61-5.42 3.54-1.93 1.93-4 3.5-4.62 3.5-0.61 0-3.68 2.25-6.82 5-3.15 2.75-6.28 5.01-6.97 5.03-0.69 0.02-3.61 2.27-6.5 5-2.89 2.73-6.04 4.98-7 5-0.96 0.01-3.66 2.04-6 4.5-2.34 2.46-5.26 4.7-6.5 4.99-1.24 0.28-4.95 3.24-8.25 6.57-3.3 3.33-7.35 6.63-9 7.34-1.65 0.72-7.97 6.31-14.04 12.43-6.07 6.13-11.81 11.14-12.75 11.14-0.94 0-11.84 10.13-24.21 22.5-12.38 12.38-22.5 23.17-22.5 24 0 0.83-5 6.56-11.12 12.75-6.11 6.19-11.71 12.6-12.43 14.25-0.72 1.65-4.05 5.7-7.39 9-3.45 3.4-6.08 6.87-6.07 8 0.01 1.14-2.13 3.93-4.99 6.5-2.86 2.58-5 5.35-4.99 6.5 0.01 1.1-2.25 4.25-5.01 7-2.76 2.75-5.02 5.56-5.01 6.25 0 0.69-2.18 3.61-4.86 6.5-2.68 2.89-5.22 6.38-5.64 7.75-0.42 1.37-1.75 3.4-2.96 4.5-1.2 1.1-2.54 3.12-2.97 4.5-0.43 1.37-2.01 3.85-3.51 5.5-1.5 1.65-3.71 4.91-4.89 7.25-1.19 2.34-2.18 4.81-2.19 5.5-0.02 0.69-1.6 2.71-3.5 4.5-1.91 1.79-3.48 4.04-3.5 5-0.02 0.96-0.7 2.65-1.52 3.75-0.82 1.1-1.48 2.56-1.47 3.25 0.01 0.69-1.56 2.83-3.48 4.75-1.92 1.92-3.5 4.4-3.5 5.5 0 1.1-0.67 2.23-1.5 2.5-0.83 0.27-1.48 1.51-1.46 2.75 0.03 1.24-0.66 2.92-1.52 3.75-0.87 0.83-1.79 2.74-2.05 4.25-0.26 1.51-0.92 2.75-1.47 2.75-0.55 0-1.28 1.24-1.63 2.75-0.35 1.51-1.92 3.99-3.5 5.5-1.58 1.51-2.87 3.31-2.88 4 0 0.69-0.9 2.6-1.99 4.25-1.09 1.65-1.99 3.79-1.99 4.75-0.01 0.96-0.68 1.98-1.51 2.25-0.93 0.31-1.49 1.74-1.48 3.75 0.01 1.79-0.65 4.15-1.47 5.25-0.82 1.1-1.49 2.67-1.49 3.5 0 0.83-0.93 2.62-2.06 4-1.13 1.37-2.05 3.29-2.03 4.25 0.02 0.96-0.64 1.98-1.47 2.25-0.83 0.27-1.5 1.29-1.51 2.25 0 0.96-0.9 3.1-1.99 4.75-1.09 1.65-1.99 3.79-1.99 4.75-0.01 0.96-0.49 1.86-1.07 2-0.58 0.14-1.36 2.21-1.75 4.61-0.38 2.4-1.27 4.87-1.98 5.5-0.72 0.63-1.27 1.81-1.22 2.64 0.04 0.83-0.86 2.62-1.99 4-1.17 1.42-2.05 3.9-2.03 5.75 0.02 1.79-0.64 3.92-1.47 4.75-0.83 0.83-1.5 2.4-1.5 3.5 0 1.1-0.67 2.23-1.5 2.5-0.92 0.31-1.5 1.75-1.51 3.75 0 1.79-0.9 4.6-1.99 6.25-1.09 1.65-1.97 4.35-1.95 6 0.02 1.65-0.68 3.67-1.55 4.5-0.92 0.87-1.57 3.07-1.54 5.25 0.02 2.16-0.53 4.07-1.31 4.5-0.75 0.41-1.65 2.66-2 5-0.36 2.34-1.32 4.92-2.15 5.75-0.83 0.83-1.48 2.96-1.46 4.75 0.03 1.79-0.67 3.92-1.54 4.75-1.07 1.01-1.56 3.13-1.5 6.5 0.06 3.37-0.43 5.49-1.5 6.5-0.87 0.83-1.57 2.85-1.55 4.5 0.02 1.65-0.86 4.35-1.95 6-1.27 1.91-1.97 4.63-1.95 7.5 0.03 2.86-0.54 5.05-1.55 6-1.13 1.06-1.57 3.25-1.53 7.5 0.04 3.83-0.47 6.72-1.42 8-0.85 1.14-1.49 4.14-1.49 7 0 3.57-0.59 5.71-2.06 7.5-1.72 2.09-2.05 3.83-1.99 10.5 0.06 6.09-0.3 8.36-1.51 9.5-1.21 1.14-1.57 3.43-1.53 9.5 0.05 5.59-0.38 8.6-1.42 10-1.06 1.43-1.5 4.71-1.52 11.5-0.04 7.76-0.41 10.05-2.03 12.5-1.78 2.69-1.99 4.72-1.99 19.75-0.01 14-0.26 16.83-1.51 17.25-1.25 0.42-1.5 3.14-1.51 16.25l-0.01 15.75 13.04 13v14l-13.04 13c0.02 28.86 0.27 31.58 1.52 32 1.25 0.42 1.5 3.25 1.51 17.25 0 15.03 0.21 17.06 1.99 19.75 1.62 2.45 1.99 4.74 2.03 12.5 0.02 6.79 0.46 10.07 1.52 11.5 1.04 1.4 1.47 4.41 1.42 10-0.04 6.07 0.32 8.36 1.53 9.5 1.21 1.14 1.57 3.41 1.51 9.5-0.06 6.67 0.27 8.41 1.99 10.5 1.47 1.79 2.06 3.93 2.06 7.5 0 2.86 0.64 5.86 1.49 7 0.95 1.28 1.46 4.17 1.42 8-0.04 4.25 0.4 6.44 1.53 7.5 1.01 0.95 1.58 3.14 1.55 6-0.02 2.87 0.68 5.59 1.95 7.5 1.09 1.65 1.97 4.35 1.95 6-0.02 1.65 0.68 3.67 1.55 4.5 1.07 1.01 1.56 3.13 1.5 6.5-0.06 3.37 0.43 5.49 1.5 6.5 0.87 0.83 1.57 2.96 1.54 4.75-0.02 1.79 0.63 3.92 1.46 4.75 0.83 0.83 1.79 3.41 2.15 5.75 0.35 2.34 1.25 4.59 2 5 0.78 0.43 1.33 2.34 1.31 4.5-0.03 2.18 0.62 4.38 1.54 5.25 0.87 0.83 1.57 2.85 1.55 4.5-0.02 1.65 0.86 4.35 1.95 6 1.09 1.65 1.99 4.46 1.99 6.25 0.01 2 0.59 3.44 1.51 3.75 0.83 0.28 1.5 1.4 1.5 2.5 0 1.1 0.67 2.67 1.5 3.5 0.83 0.83 1.49 2.96 1.47 4.75-0.02 1.85 0.86 4.33 2.03 5.75 1.13 1.37 2.03 3.17 1.99 4-0.05 0.83 0.5 2.01 1.22 2.64 0.71 0.63 1.6 3.1 1.98 5.5 0.39 2.4 1.17 4.47 1.75 4.61 0.58 0.14 1.06 1.04 1.07 2 0 0.96 0.9 3.1 1.99 4.75 1.09 1.65 1.99 3.79 1.99 4.75 0.01 0.96 0.68 1.97 1.51 2.25 0.83 0.28 1.49 1.29 1.47 2.25-0.02 0.96 0.9 2.87 2.03 4.25 1.13 1.37 2.06 3.17 2.06 4 0 0.83 0.67 2.4 1.49 3.5 0.82 1.1 1.48 3.46 1.47 5.25-0.01 2.01 0.55 3.44 1.48 3.75 0.83 0.28 1.5 1.29 1.51 2.25 0 0.96 0.9 3.1 1.99 4.75 1.09 1.65 1.99 3.56 1.99 4.25 0.01 0.69 1.3 2.49 2.88 4 1.58 1.51 3.15 3.99 3.5 5.5 0.35 1.51 1.08 2.75 1.63 2.75 0.55 0 1.21 1.24 1.47 2.75 0.26 1.51 1.18 3.42 2.05 4.25 0.86 0.83 1.55 2.51 1.52 3.75-0.02 1.24 0.63 2.47 1.46 2.75 0.83 0.28 1.5 1.4 1.5 2.5 0 1.1 1.58 3.58 3.5 5.5 1.92 1.92 3.49 4.06 3.48 4.75-0.01 0.69 0.65 2.15 1.47 3.25 0.82 1.1 1.5 2.79 1.52 3.75 0.02 0.96 1.59 3.21 3.5 5 1.9 1.79 3.48 3.81 3.5 4.5 0.01 0.69 1 3.16 2.19 5.5 1.18 2.34 3.39 5.6 4.89 7.25 1.5 1.65 3.08 4.12 3.51 5.5 0.43 1.37 1.77 3.4 2.97 4.5 1.21 1.1 2.54 3.12 2.96 4.5 0.42 1.37 2.96 4.86 5.64 7.75 2.68 2.89 4.86 5.81 4.86 6.5-0.01 0.69 2.25 3.5 5.01 6.25 2.76 2.75 5.02 5.9 5.01 7-0.01 1.15 2.13 3.92 4.99 6.5 2.86 2.57 5 5.36 4.99 6.5-0.01 1.13 2.62 4.6 6.07 8 3.34 3.3 6.67 7.35 7.39 9 0.72 1.65 6.32 8.06 12.43 14.25 6.12 6.19 11.12 11.92 11.12 12.75 0 0.83 10.12 11.62 22.5 24 12.37 12.37 23.29 22.52 24.25 22.54 0.96 0.03 6.7 5.04 12.75 11.14 6.05 6.1 12.35 11.67 14 12.39 1.65 0.71 5.7 4.01 9 7.34 3.3 3.33 7.01 6.29 8.25 6.57 1.24 0.29 4.16 2.53 6.5 4.99 2.34 2.46 5.04 4.49 6 4.5 0.96 0.02 4.11 2.27 7 5 2.89 2.73 5.81 4.98 6.5 5 0.69 0.02 3.61 2.27 6.5 5 2.89 2.73 6.04 4.98 7 5 0.96 0.02 3.21 1.59 5 3.5 1.79 1.9 4.15 3.49 5.25 3.53 1.1 0.04 3.69 1.64 5.75 3.54 2.06 1.9 4.31 3.44 5 3.42 0.69-0.03 1.92 0.65 2.75 1.51 0.83 0.86 2.62 1.82 4 2.14 1.37 0.32 3.51 1.66 4.75 2.99 1.24 1.32 3.26 2.62 4.5 2.89 1.24 0.26 2.92 1.18 3.75 2.04 0.83 0.86 2.06 1.54 2.75 1.51 0.69-0.02 3.05 1.54 5.25 3.46 2.2 1.92 4.9 3.5 6 3.5 1.1 0 2.22 0.67 2.5 1.5 0.28 0.83 1.29 1.5 2.25 1.51 0.96 0 3.1 0.9 4.75 1.99 1.65 1.09 3.79 1.99 4.75 1.99 0.96 0.01 1.75 0.46 1.75 1.01 0 0.55 1.24 1.29 2.75 1.65 1.51 0.35 4.21 2.15 6 4 1.79 1.84 4.04 3.36 5 3.38 0.96 0.02 2.65 0.7 3.75 1.52 1.1 0.82 2.79 1.48 3.75 1.47 0.96-0.01 1.97 0.65 2.25 1.48 0.31 0.92 1.75 1.5 3.75 1.51 1.79 0 4.6 0.9 6.25 1.99 1.65 1.09 3.79 1.99 4.75 1.99 0.96 0.01 1.97 0.68 2.25 1.51 0.28 0.83 1.51 1.49 2.75 1.48 1.24-0.01 2.7 0.42 3.25 0.95 0.55 0.53 3.14 2.11 5.75 3.52 2.61 1.4 5.42 2.55 6.25 2.55 0.83 0 1.72 0.67 2 1.5 0.33 0.99 1.78 1.48 4.25 1.46 2.18-0.03 4.38 0.62 5.25 1.54 0.83 0.87 2.29 1.57 3.25 1.54 0.96-0.02 2.42 0.63 3.25 1.46 0.83 0.83 3.41 1.79 5.75 2.15 2.34 0.35 4.59 1.25 5 2 0.41 0.74 2.1 1.57 3.75 1.85 1.65 0.28 2.99 0.84 2.99 1.25-0.01 0.41 1.9 0.99 4.25 1.29 2.34 0.3 5.05 1.31 6.01 2.25 0.96 0.94 3.21 1.69 5 1.67 1.79-0.03 3.92 0.67 4.75 1.54 0.83 0.87 2.96 1.57 4.75 1.54 1.79-0.02 3.92 0.63 4.75 1.46 0.83 0.83 2.96 1.49 4.75 1.47 1.85-0.02 4.33 0.86 5.75 2.03 1.38 1.13 3.85 2.03 5.5 1.99 1.65-0.05 3.67 0.64 4.5 1.51 0.95 1.01 3.14 1.58 6 1.55 2.87-0.02 5.59 0.68 7.5 1.95 1.65 1.09 4.35 2 6 2.03 1.65 0.02 3.9 0.7 5 1.52 1.11 0.83 3.99 1.46 6.5 1.42 2.77-0.04 5.08 0.52 6 1.46q1.51 1.52 8.57 1.8c5.16 0.2 7.52 0.74 8.75 2.02 1.2 1.25 3.25 1.75 7.18 1.75 4 0 5.64 0.41 6 1.5 0.4 1.19 2.33 1.49 9.25 1.46 6.74-0.04 9.09 0.32 10.25 1.54 1.13 1.2 3.45 1.58 9.5 1.55 6.35-0.03 8.62 0.37 11 1.95 2.48 1.64 4.65 1.98 12.5 1.95 7.42-0.03 9.83 0.31 11 1.55 1.26 1.34 4.24 1.58 18.75 1.54 14.47-0.03 17.33 0.2 17.75 1.46 0.42 1.25 3.17 1.5 16.5 1.5h16l12.5-12.91 14-0.11 13 13.04c28.4 0.06 31.25-0.2 32.5-1.52 1.26-1.34 4.24-1.58 18.75-1.54 14.47 0.03 17.33-0.2 17.75-1.46 0.4-1.21 2.51-1.49 10.75-1.47 8.9 0.03 10.58-0.24 12.75-2.03 2.09-1.72 3.83-2.05 10.5-1.99 6.09 0.06 8.36-0.3 9.5-1.51 1.16-1.23 3.44-1.57 10-1.5 6.56 0.07 8.84-0.27 10-1.5 0.95-1.01 3.14-1.58 6-1.55 2.87 0.02 5.59-0.68 7.5-1.95 2.25-1.49 4.7-1.99 9.75-1.99 4.54-0.01 6.87-0.42 7.11-1.26 0.22-0.74 2.95-1.49 6.75-1.85 3.57-0.33 6.5-1.1 6.64-1.75 0.14-0.63 1.71-1.15 3.5-1.16 1.79 0 4.6-0.9 6.25-1.99 2.03-1.35 4.69-1.99 8.25-1.99 3.77-0.01 5.39-0.43 5.75-1.51 0.31-0.92 1.75-1.5 3.75-1.51 1.79 0 4.6-0.9 6.25-1.99 1.65-1.09 4.35-2 6-2.03 1.65-0.02 3.9-0.7 5-1.52 1.1-0.82 3.46-1.48 5.25-1.47 2.01 0.01 3.44-0.55 3.75-1.48 0.31-0.92 1.75-1.5 3.75-1.51 1.79 0 4.6-0.9 6.25-1.99 1.65-1.09 4.12-2 5.5-2.01 1.37-0.01 4.48-1.02 6.89-2.25 2.42-1.23 4.56-2.58 4.75-2.99 0.2-0.41 1.71-0.75 3.36-0.75 1.65 0 5.14-1.15 7.75-2.55 2.61-1.41 5.18-2.98 5.7-3.5 0.52-0.52 2.57-0.95 4.55-0.95 1.98 0 4.03-0.43 4.55-0.95 0.52-0.52 3.09-2.09 5.7-3.5 2.61-1.4 5.43-2.55 6.25-2.55 0.82 0 1.72-0.67 2-1.5 0.28-0.83 1.53-1.5 2.8-1.5 1.26 0 2.73-0.43 3.25-0.95 0.52-0.52 3.09-2.09 5.7-3.5 2.61-1.4 6.1-2.55 7.75-2.55 1.65 0 3.16-0.34 3.36-0.75 0.19-0.41 2.33-1.76 4.75-2.99 2.41-1.23 4.97-2.24 5.67-2.25 0.71 0 2.86-1.58 4.79-3.51 1.92-1.92 4.04-3.49 4.71-3.48 0.67 0.01 2.12-0.65 3.22-1.47 1.1-0.82 2.68-1.49 3.5-1.49 0.82 0 2.62-0.93 4-2.06 1.37-1.13 3.29-2.05 4.25-2.03 0.96 0.02 1.97-0.64 2.25-1.47 0.28-0.83 1.4-1.5 2.5-1.5 1.1 0 3.8-1.58 6-3.5 2.2-1.92 4.9-3.5 6-3.5 1.1 0 2.22-0.67 2.5-1.5 0.28-0.83 1.4-1.5 2.5-1.5 1.1 0 3.8-1.58 6-3.5 2.2-1.92 4.56-3.48 5.25-3.46 0.69 0.03 1.93-0.67 2.75-1.54 0.82-0.87 2.29-1.57 3.25-1.54 0.96 0.02 3.21-1.52 5-3.43 1.79-1.9 4.15-3.49 5.25-3.53 1.1-0.04 3.69-1.64 5.75-3.54 2.06-1.9 4.31-3.47 5-3.49 0.69-0.02 3.61-2.27 6.5-5 2.89-2.73 6.04-4.98 7-5 0.96-0.01 3.55-1.96 5.75-4.32 2.2-2.36 5.12-4.65 6.5-5.1 1.37-0.44 4.86-3 7.75-5.68 2.89-2.68 5.81-4.85 6.5-4.82 0.69 0.02 4.18-2.89 7.75-6.47 3.57-3.58 7.29-6.53 8.25-6.55 0.96-0.01 6.93-5.2 13.25-11.53 6.32-6.33 12.51-11.77 13.75-12.1 1.24-0.33 12.26-10.56 24.5-22.75 12.24-12.18 22.25-22.94 22.25-23.9 0-0.96 5.1-6.81 11.33-13 6.23-6.19 11.68-12.38 12.11-13.75 0.43-1.38 3.66-5.31 7.17-8.75 3.51-3.44 6.39-6.92 6.39-7.75 0-0.83 2.24-3.86 4.97-6.75 2.73-2.89 4.98-6.04 5-7 0.02-0.96 2.28-4 5.03-6.75 2.75-2.75 5-5.67 5-6.5 0-0.83 2.19-3.86 4.87-6.75 2.68-2.89 5.15-6.15 5.47-7.25 0.33-1.1 1.9-3.35 3.49-5 1.59-1.65 3.26-4.13 3.7-5.5 0.45-1.38 1.82-3.4 3.05-4.5 1.22-1.1 2.49-3.13 2.81-4.5 0.32-1.38 1.28-3.17 2.14-4 0.86-0.83 1.54-2.06 1.51-2.75-0.02-0.69 1.53-3.05 3.46-5.25 1.93-2.2 3.5-4.9 3.5-6 0-1.1 0.68-2.22 1.5-2.5 0.82-0.28 1.5-1.4 1.5-2.5 0-1.1 1.56-3.69 3.46-5.75 1.9-2.06 3.48-4.76 3.5-6 0.02-1.24 0.72-2.47 1.54-2.75 0.82-0.28 1.5-1.4 1.5-2.5 0-1.1 0.68-2.67 1.5-3.5 0.82-0.83 1.72-2.51 1.99-3.75 0.26-1.24 1.18-2.92 2.04-3.75 0.86-0.83 1.54-2.29 1.51-3.25-0.02-0.96 1.53-3.33 3.46-5.25 1.93-1.92 3.5-4.4 3.5-5.5 0-1.1 0.68-2.22 1.5-2.5 0.82-0.28 1.49-1.29 1.48-2.25-0.01-0.96 0.65-2.65 1.47-3.75 0.82-1.1 1.5-3.24 1.52-4.75 0.02-1.51 1.19-4.89 2.6-7.5 1.41-2.61 2.95-5.2 3.41-5.75 0.47-0.55 1.12-2.24 1.44-3.75 0.32-1.51 1.03-2.75 1.58-2.75 0.55 0 1.27-1.01 1.59-2.25 0.33-1.24 1.57-4.23 2.75-6.64 1.19-2.42 2.5-4.56 2.91-4.75 0.41-0.2 0.75-1.71 0.75-3.36 0-1.65 1.57-5.92 3.5-9.5 1.93-3.58 3.49-7.74 3.48-9.25-0.01-1.51 0.42-3.2 0.95-3.75 0.53-0.55 2.11-3.14 3.52-5.75 1.4-2.61 2.53-5.99 2.51-7.5-0.03-1.51 0.67-3.42 1.54-4.25 0.92-0.87 1.57-3.07 1.54-5.25-0.02-2.16 0.53-4.07 1.31-4.5 0.75-0.41 1.65-2.66 2-5 0.36-2.34 1.33-4.92 2.15-5.75 0.82-0.83 1.48-2.96 1.46-4.75-0.03-1.79 0.67-3.92 1.54-4.75 0.92-0.87 1.57-3.07 1.54-5.25-0.02-2.47 0.47-3.92 1.46-4.25 1.08-0.36 1.5-1.98 1.51-5.75 0-3.56 0.64-6.22 1.99-8.25 1.09-1.65 1.99-4.46 1.99-6.25 0.01-1.79 0.57-3.41 1.26-3.61 0.74-0.22 1.49-2.95 1.85-6.75 0.33-3.57 1.1-6.5 1.75-6.64 0.73-0.16 1.15-2.72 1.16-7 0-5.05 0.5-7.5 1.99-9.75 1.27-1.91 1.97-4.63 1.95-7.5-0.03-2.86 0.54-5.05 1.55-6 1.21-1.14 1.57-3.43 1.53-9.5-0.05-5.59 0.38-8.6 1.42-10 1.03-1.38 1.5-4.56 1.52-10.25 0.02-6.52 0.4-8.6 1.78-9.93 1.42-1.36 1.8-3.71 2-12.5 0.2-8.57 0.56-10.92 1.75-11.32 1.25-0.42 1.5-3.25 1.51-17.25 0-15.03 0.21-17.06 1.99-19.75 1.75-2.64 1.99-4.71 1.99-17.25l0.01-14.25-13.5-13.42v-14.16l13.5-13.42c-0.01-26.79-0.25-28.86-2-31.5-1.78-2.69-1.99-4.72-1.99-19.75-0.01-14-0.26-16.83-1.51-17.25-1.19-0.4-1.55-2.75-1.75-11.32-0.2-8.79-0.58-11.14-2-12.5-1.38-1.33-1.76-3.41-1.78-9.93-0.02-5.69-0.49-8.87-1.52-10.25-1.04-1.4-1.47-4.41-1.42-10 0.04-6.07-0.32-8.36-1.53-9.5-1.01-0.95-1.58-3.14-1.55-6 0.02-2.87-0.68-5.59-1.95-7.5-1.49-2.25-1.99-4.7-1.99-9.75-0.01-4.28-0.43-6.84-1.16-7-0.65-0.14-1.42-3.07-1.75-6.64-0.36-3.8-1.11-6.53-1.85-6.75-0.69-0.2-1.25-1.82-1.26-3.61 0-1.79-0.9-4.6-1.99-6.25-1.35-2.03-1.99-4.69-1.99-8.25-0.01-3.77-0.43-5.39-1.51-5.75-0.99-0.33-1.48-1.78-1.46-4.25 0.03-2.18-0.62-4.38-1.54-5.25-0.87-0.83-1.57-2.96-1.54-4.75 0.02-1.79-0.64-3.92-1.46-4.75-0.82-0.83-1.79-3.41-2.15-5.75-0.35-2.34-1.25-4.59-2-5-0.78-0.43-1.33-2.34-1.31-4.5 0.03-2.18-0.62-4.38-1.54-5.25-0.87-0.83-1.57-2.74-1.54-4.25 0.02-1.51-1.11-4.89-2.51-7.5-1.41-2.61-2.99-5.2-3.52-5.75-0.53-0.55-0.96-2.24-0.95-3.75 0.01-1.51-1.55-5.67-3.48-9.25-1.93-3.58-3.5-7.85-3.5-9.5 0-1.65-0.34-3.16-0.75-3.36-0.41-0.19-1.72-2.33-2.91-4.75-1.18-2.41-2.42-5.4-2.75-6.64-0.32-1.24-1.04-2.25-1.59-2.25-0.55 0-1.26-1.24-1.58-2.75-0.32-1.51-0.97-3.2-1.44-3.75-0.46-0.55-2-3.14-3.41-5.75-1.41-2.61-2.58-5.99-2.6-7.5-0.02-1.51-0.7-3.65-1.52-4.75-0.82-1.1-1.48-2.79-1.47-3.75 0.01-0.96-0.66-1.98-1.48-2.25-0.82-0.27-1.5-1.4-1.5-2.5 0-1.1-1.57-3.58-3.5-5.5-1.93-1.92-3.48-4.29-3.46-5.25 0.03-0.96-0.65-2.42-1.51-3.25-0.86-0.83-1.78-2.51-2.04-3.75-0.27-1.24-1.17-2.92-1.99-3.75-0.82-0.83-1.5-2.4-1.5-3.5 0-1.1-0.68-2.23-1.5-2.5-0.82-0.27-1.52-1.51-1.54-2.75-0.02-1.24-1.6-3.94-3.5-6-1.9-2.06-3.46-4.65-3.46-5.75 0-1.1-0.68-2.23-1.5-2.5-0.82-0.27-1.5-1.4-1.5-2.5 0-1.1-1.57-3.8-3.5-6-1.93-2.2-3.48-4.56-3.46-5.25 0.03-0.69-0.65-1.92-1.51-2.75-0.86-0.83-1.82-2.63-2.14-4-0.32-1.38-1.59-3.4-2.81-4.5-1.23-1.1-2.6-3.13-3.05-4.5-0.44-1.38-2.11-3.85-3.7-5.5-1.59-1.65-3.16-3.9-3.49-5-0.32-1.1-2.79-4.36-5.47-7.25-2.68-2.89-4.87-5.92-4.87-6.75 0-0.83-2.25-3.75-5-6.5-2.75-2.75-5.01-5.79-5.03-6.75-0.02-0.96-2.27-4.11-5-7-2.73-2.89-4.97-5.92-4.97-6.75 0-0.83-2.88-4.31-6.39-7.75-3.51-3.44-6.74-7.38-7.17-8.75-0.43-1.38-5.88-7.56-12.11-13.75-6.23-6.19-11.33-12.04-11.33-13 0-0.96-10.01-11.72-22.25-23.9-12.24-12.19-23.26-22.42-24.5-22.75-1.24-0.33-7.43-5.77-13.75-12.1-6.32-6.33-12.29-11.52-13.25-11.53-0.96-0.02-4.68-2.97-8.25-6.55-3.57-3.58-7.06-6.49-7.75-6.47-0.69 0.03-3.61-2.14-6.5-4.82-2.89-2.68-6.38-5.24-7.75-5.68-1.38-0.45-4.3-2.74-6.5-5.1-2.2-2.36-4.79-4.31-5.75-4.32-0.96-0.02-4.11-2.27-7-5-2.89-2.73-5.81-4.98-6.5-5-0.69-0.02-2.94-1.59-5-3.49-2.06-1.9-4.65-3.5-5.75-3.54-1.1-0.04-3.46-1.63-5.25-3.53-1.79-1.91-4.04-3.45-5-3.43-0.96 0.03-2.43-0.67-3.25-1.54-0.82-0.87-2.06-1.57-2.75-1.54-0.69 0.02-3.05-1.53-5.25-3.46-2.2-1.93-4.9-3.5-6-3.5-1.1 0-2.22-0.68-2.5-1.5-0.28-0.82-1.4-1.5-2.5-1.5-1.1 0-3.8-1.57-6-3.5-2.2-1.93-4.9-3.5-6-3.5-1.1 0-2.22-0.68-2.5-1.5-0.28-0.82-1.29-1.49-2.25-1.47-0.96 0.02-2.88-0.9-4.25-2.03-1.38-1.13-3.18-2.06-4-2.06-0.82 0-2.4-0.67-3.5-1.49-1.1-0.82-2.56-1.48-3.25-1.47-0.69 0.01-2.82-1.55-4.75-3.48-1.93-1.93-4.06-3.51-4.75-3.51-0.69-0.01-3.23-1.02-5.64-2.25-2.42-1.23-4.56-2.58-4.75-2.99-0.2-0.41-1.71-0.75-3.36-0.75-1.65 0-5.14-1.15-7.75-2.55-2.61-1.41-5.2-2.99-5.75-3.52-0.55-0.53-2.01-0.96-3.25-0.95-1.24 0.01-2.47-0.66-2.75-1.48-0.28-0.82-1.18-1.5-2-1.5-0.82 0-3.64-1.15-6.25-2.55-2.61-1.41-5.2-2.99-5.75-3.52-0.55-0.53-2.57-0.95-4.5-0.93-1.93 0.02-3.95-0.4-4.5-0.93-0.55-0.53-3.14-2.11-5.75-3.52-2.61-1.4-6.1-2.55-7.75-2.55-1.65 0-3.16-0.34-3.36-0.75-0.19-0.41-2.33-1.76-4.75-2.99-2.41-1.23-5.52-2.24-6.89-2.25-1.38-0.01-3.85-0.92-5.5-2.01-1.65-1.09-4.46-1.99-6.25-1.99-2-0.01-3.44-0.59-3.75-1.51-0.31-0.93-1.74-1.49-3.75-1.48-1.79 0.01-4.15-0.65-5.25-1.47-1.1-0.82-3.35-1.5-5-1.52-1.65-0.03-4.35-0.94-6-2.03-1.65-1.09-4.46-1.99-6.25-1.99-2-0.01-3.44-0.59-3.75-1.51-0.36-1.08-1.98-1.5-5.75-1.51-3.56 0-6.22-0.64-8.25-1.99-1.65-1.09-4.46-1.99-6.25-1.99-1.79-0.01-3.36-0.53-3.5-1.16-0.14-0.65-3.07-1.42-6.64-1.75-3.8-0.36-6.53-1.11-6.75-1.85-0.24-0.84-2.57-1.25-7.11-1.26-5.05 0-7.5-0.5-9.75-1.99-1.91-1.27-4.63-1.97-7.5-1.95-2.86 0.03-5.05-0.54-6-1.55-1.16-1.23-3.44-1.57-10-1.5-6.56 0.07-8.84-0.27-10-1.5-1.14-1.21-3.41-1.57-9.5-1.51-6.67 0.06-8.41-0.27-10.5-1.99-2.17-1.79-3.85-2.06-12.75-2.03-8.24 0.02-10.35-0.26-10.75-1.47-0.42-1.26-3.28-1.49-17.75-1.46-14.51 0.04-17.49-0.2-18.75-1.54-1.25-1.32-4.11-1.58-17.19-1.54l-15.69 0.04-12.62 13.02-14-0.11-12.5-12.91c-29.14 0-31.93 0.25-32.42 1.5z"/>
		<path id="Path 3" class="s2" d="m1093.33 644.64c-0.64 0.26-3.3 4.84-5.91 10.17-2.62 5.33-5.8 10.7-7.09 11.94-1.28 1.24-4.41 2.81-6.96 3.5-2.54 0.69-5.02 2.04-5.5 3-0.48 0.96-0.65 2.2-0.37 2.75 0.28 0.55 1.74 0.99 3.25 0.99 1.51-0.01 4.22 0.33 6.02 0.75l3.28 0.76c-0.06 69.38 0.22 77.99 1.39 82 0.8 2.75 2.51 6.58 3.8 8.5 1.38 2.06 4.37 4.47 7.3 5.87 3.45 1.66 6.63 2.36 10.46 2.32 3.03-0.03 6.74-0.54 8.25-1.13 1.51-0.58 3.76-1.07 5-1.07 1.24-0.01 4.05-0.88 6.25-1.93 2.2-1.04 4.34-2.61 4.75-3.48 0.41-0.87 0.3-2.48-0.25-3.58-0.9-1.8-2.02-2-11.25-2.03-8.73-0.03-10.58-0.33-12.5-2-1.24-1.08-2.92-4.11-3.74-6.72-1.2-3.84-1.49-11.71-1.5-41-0.01-28.27 0.27-36.28 1.24-36.38 0.69-0.07 6.2-0.4 12.25-0.75l11-0.62c0.39-6.59 0.39-8.56 0.25-8.64-0.14-0.07-5.65-0.41-12.25-0.75l-12-0.61c-0.49-17.3-1.02-21.26-1.8-21.73-0.66-0.41-1.42-0.71-1.7-0.68-0.28 0.04-1.02 0.28-1.67 0.55zm-683.33 20.34c-1.92 0.47-5.52 1.41-8 2.08-2.47 0.68-5.17 1.83-6 2.56-0.82 0.73-2 1.34-2.6 1.35-0.61 0.02-3.08 1.94-5.51 4.28-2.54 2.45-5.95 7.43-8.07 11.75-2.01 4.13-4.41 10.65-5.32 14.5-1.3 5.48-1.55 10.15-1.17 21.5 0.27 7.97 1.13 17.2 1.91 20.5 0.78 3.3 2.51 8.25 3.84 11 1.33 2.75 2.87 5.58 3.42 6.3 0.55 0.71 2.58 2.88 4.5 4.82 1.93 1.93 5.53 4.65 8 6.02 2.48 1.38 6.3 2.88 8.5 3.33 2.2 0.46 6.48 1.34 9.5 1.96 3.03 0.63 7.3 0.87 9.5 0.53 2.2-0.33 7.26-1.25 11.25-2.03 3.99-0.79 9.61-2.48 12.5-3.77 2.89-1.28 5.81-3.08 6.5-4 0.69-0.91 1.03-2.56 0.75-3.66-0.39-1.54-1.01-1.85-2.75-1.33-1.24 0.37-9.9 0.86-19.25 1.09l-17 0.41c-9.69-5.56-13.28-8.41-14.23-9.92-0.95-1.51-2.04-2.97-2.42-3.25-0.38-0.28-1.37-2.53-2.2-5-0.83-2.47-1.87-9.12-2.33-14.76l-0.82-10.26c47.28 0 62.01-0.23 63.25-0.49 2.19-0.48 2.25-0.84 2.25-12.99 0-11.2-0.26-13.07-2.5-18-1.37-3.02-2.5-5.73-2.5-6 0-0.27-1.46-2.48-3.25-4.9-1.79-2.43-5.27-5.73-7.75-7.34-2.47-1.61-6.75-3.65-9.5-4.52-2.75-0.88-8.15-1.82-12-2.1-3.85-0.28-8.57-0.13-10.5 0.34zm125.5-0.38c-1.1 0.25-3.8 0.94-6 1.53-2.2 0.59-6.02 1.77-8.5 2.61-2.47 0.84-6.97 2.63-10 3.97-5.27 2.34-5.55 2.37-6.77 0.62-0.69-1.01-1.25-2.5-1.22-3.33 0.02-0.89-1.3-1.81-3.24-2.26-1.8-0.42-7.85-0.76-13.45-0.75-7.67 0.01-10.56 0.38-11.75 1.51-0.86 0.83-1.34 2.17-1.07 3 0.28 0.83 2.19 1.93 4.25 2.45 2.06 0.52 4.99 1.87 6.5 3l2.75 2.05-0.5 84.5c-5.42 2.65-8.24 3.67-9.75 3.96-1.51 0.3-2.97 1.21-3.25 2.04-0.27 0.83-0.27 2.17 0 3 0.43 1.28 3.65 1.46 22.25 1.25 21.73-0.25 21.75-0.25 22-2.5 0.17-1.54-0.46-2.53-2-3.15-1.24-0.49-4.16-1.39-6.5-2l-4.25-1.1v-85c5.04-1.56 12.65-2.12 20.16-2.26l13.66-0.24c5.72 4.65 8.09 7.8 8.95 10 1.3 3.31 1.63 10.16 1.9 39.75l0.33 35.75c-3.49 2.31-6.75 3.54-9.5 4.24-4.33 1.09-5 1.59-5 3.76v2.5l44.5 0.5c0-5.6-0.43-6.07-3.25-6.56-1.79-0.31-4.49-0.99-6-1.5l-2.75-0.94c-0.54-74.44-0.72-77.93-2.54-83-1.09-3.02-2.65-6.31-3.47-7.3-0.82-0.99-2.61-2.9-3.99-4.25-1.37-1.35-2.95-2.46-3.5-2.46-0.55 0-2.12-0.61-3.5-1.35-1.37-0.75-4.97-1.61-8-1.92-3.02-0.32-6.4-0.37-7.5-0.12zm389 0.4c-3.3 0.48-8.93 1.34-12.5 1.91-3.57 0.58-6.84 1.06-7.25 1.07-0.41 0.01-0.75 4.97-0.75 11.02 0 10.73 0.05 11 2.25 11.02 1.74 0.02 2.76-1.11 4.5-5 1.24-2.76 2.23-5.36 2.21-5.77-0.02-0.41 2.35-1.77 5.25-3.02 4.26-1.83 7.15-2.28 14.79-2.29 8.48-0.01 9.77 0.24 12.07 2.28 1.42 1.25 3.39 3.86 4.39 5.78 1.33 2.58 1.94 6.66 2.32 15.5l0.52 12c-12.24 1.87-19.85 2.64-24.8 2.93-4.95 0.28-10.57 1.02-12.5 1.64-1.93 0.62-5.3 1.94-7.5 2.92-2.2 0.99-5.24 2.97-6.75 4.4-1.51 1.44-4.11 4.75-5.76 7.36-2.92 4.59-3.02 5.14-3 16.5 0.01 10.71 0.24 12.21 2.66 17 1.46 2.89 4.16 6.71 6 8.5 1.84 1.79 5.49 3.99 8.1 4.9 2.61 0.9 7.23 1.63 10.25 1.61 3.03-0.02 7.98-0.7 11-1.52 3.03-0.81 7.3-2.38 9.5-3.49 2.2-1.1 5.69-3.19 7.75-4.63 2.06-1.44 4.2-2.4 4.75-2.12 0.55 0.28 1.28 1.96 1.63 3.75 0.34 1.79 1.13 3.58 1.75 3.98 0.61 0.41 7.08 0.75 14.37 0.75 10.9 0.02 13.34-0.25 13.75-1.48 0.28-0.83 0.5-1.72 0.5-2 0-0.28-0.68-1.17-1.5-2-0.82-0.83-2.62-1.5-4-1.5-1.37 0-3.85-0.67-5.5-1.5l-3-1.5c-0.49-77.21-0.62-79.73-2.5-83.53-1.1-2.22-3.01-5.26-4.25-6.75-1.24-1.5-2.59-2.73-3-2.75-0.41-0.01-1.43-0.62-2.25-1.35-0.82-0.72-3.97-2.1-7-3.05-3.02-0.94-8.87-1.88-13-2.07-4.12-0.2-10.2 0.03-13.5 0.5zm254.5-0.34c-1.37 0.22-4.97 1.13-8 2.04-3.02 0.91-7.07 2.57-9 3.7-1.93 1.12-5.22 3.63-7.32 5.57-2.1 1.94-5.38 6.68-7.28 10.53-1.9 3.85-3.44 7.67-3.44 8.5 0.01 0.83-0.89 3.97-1.99 7-1.73 4.73-1.96 7.38-1.64 19 0.2 7.42 0.85 15.3 1.45 17.5 0.6 2.2 1.59 6.03 2.2 8.5 0.61 2.47 2.1 6.53 3.3 9 1.2 2.47 4.21 6.53 6.7 9.02 2.49 2.48 7 5.73 10.02 7.22 3.03 1.48 9.32 3.41 14 4.27 6.93 1.29 9.7 1.37 15 0.45 3.57-0.62 8.53-1.51 11-1.97 2.48-0.46 7.09-1.99 10.25-3.41 4.53-2.03 5.88-3.16 6.34-5.33 0.33-1.51 0.22-3.1-0.25-3.53-0.46-0.42-2.08-0.31-3.59 0.25-1.51 0.57-10.06 1.03-19 1.02-16.01-0.01-16.32-0.05-21.25-2.85-2.75-1.57-6.31-4.37-7.91-6.24-1.6-1.87-3.7-5.2-4.68-7.4-0.97-2.2-2.25-8.61-2.84-14.25-0.59-5.64-0.84-10.7-0.57-11.25 0.32-0.63 11.5-1 30.5-1 18.79 0 31.03-0.4 32.75-1.06l2.75-1.07c-1.5-22.65-2.22-26.66-4.2-31.37-1.38-3.3-4.15-7.99-6.15-10.42-2.01-2.44-5.34-5.47-7.4-6.75-2.06-1.28-5.66-2.81-8-3.4-2.34-0.6-6.27-1.47-8.75-1.95-2.47-0.47-5.85-0.83-7.5-0.78-1.65 0.04-4.12 0.25-5.5 0.46zm-129 2.25c-2.47 0.91-7.65 3.19-11.5 5.09-3.85 1.89-7.22 3.69-7.5 3.99-0.27 0.31-1.74 1.33-3.25 2.28-2.7 1.7-2.77 1.69-3.75-0.77-0.55-1.37-1.01-3.51-1.02-4.75 0-1.24-0.44-2.92-0.96-3.75-0.73-1.16-3.61-1.58-12.73-1.84-6.96-0.19-12.92 0.11-14.54 0.75-1.51 0.6-2.75 1.76-2.75 2.59 0 0.83 1.24 2 2.75 2.6 1.51 0.61 4.66 1.96 7 3l4.25 1.9-0.5 85.5c-5.43 2.62-8.48 3.97-10.29 4.69-2 0.8-3.27 1.99-3.25 3.06 0.02 0.96 0.72 1.97 1.54 2.25 0.82 0.28 11.4 0.5 23.5 0.5 12.1 0 22.68-0.22 23.5-0.5 0.82-0.28 1.51-1.29 1.53-2.25 0.01-0.96-1.11-2.31-2.5-3-1.39-0.69-3.43-1.25-4.53-1.25-1.1 0-4.03-0.56-6.52-1.25l-4.52-1.25 0.54-79.8c9.13-3.02 13.89-3.63 19.5-3.62l8.5 0.03c4.97 9.9 6.6 11.94 7.75 11.92 1.58-0.03 1.75-1.38 1.75-14.03v-14c-5.81 0.21-9.52 1.01-12 1.91zm-484 219.84c2.48 0.22 5.08 0.93 5.79 1.58 1.02 0.92 1.29 0.79 1.25-0.58-0.03-1.48-0.93-1.72-5.79-1.58-5.4 0.17-5.48 0.2-1.25 0.58z"/>
		<path id="Path 4" class="s0" d="m722.54 103.77c-2.85 1.57-6.26 4.57-8 7.07-2.79 3.97-3.04 5.01-3.04 12.57 0 7.44 0.3 8.72 3.05 13.17 1.67 2.7 5.05 6.27 7.5 7.92 4.03 2.71 5.17 2.99 11.95 2.87 6.02-0.1 8.39-0.62 12-2.65 2.47-1.4 5.65-4.04 7.05-5.88 1.41-1.84 3.09-5.14 3.74-7.34 0.65-2.2 1.18-5.57 1.19-7.5 0-1.93-0.74-5.52-1.65-8-0.91-2.48-2.71-5.96-3.99-7.75-1.29-1.79-4.14-4.15-6.34-5.25-2.92-1.46-5.96-1.99-11.25-1.98-5.99 0.02-8.11 0.5-12.21 2.75zm-42.54 6.42c-0.84 1.65-0.88 3.02-0.14 4.81 0.57 1.38 1.53 5.65 2.15 9.5 0.61 3.85 1.4 9.02 1.74 11.5 0.61 4.4 0.58 4.47-1.42 3-1.13-0.82-3.33-3.07-4.89-5-1.57-1.93-4.45-5.32-6.4-7.55-1.94-2.23-5.12-5.96-7.04-8.28-3.18-3.84-3.91-4.22-8-4.18-2.47 0.02-5.17 0.45-6 0.96-1.31 0.8-1.33 1.74-0.18 7.24 0.73 3.47 1.96 9.46 2.73 13.31 0.77 3.85 1.9 10.15 2.5 14 0.61 3.85 1.52 7.79 2.03 8.75 0.64 1.21 1.91 1.67 4.17 1.5l3.25-0.25c-0.36-9.3-0.91-13.35-1.44-15-0.54-1.65-1.33-5.82-1.77-9.26-0.71-5.61-0.61-6.27 0.96-6.25 0.96 0 2.2 1.14 2.75 2.51 0.55 1.38 1.34 2.61 1.75 2.75 0.42 0.14 4.31 4.52 8.66 9.75 4.35 5.23 8.85 9.86 10 10.3 1.15 0.44 3.78 0.56 5.84 0.25 2.06-0.3 3.93-1.11 4.15-1.8 0.21-0.69-0.64-6.43-1.91-12.75-1.27-6.32-3.17-16-4.24-21.5-1.92-9.94-1.95-10-5-10.31-2.37-0.24-3.33 0.22-4.25 2zm174.14 12.01c-0.65 0.71-1.07 2.62-0.91 4.23 0.2 2.15 0.94 3.13 2.77 3.66 1.38 0.4 3.55 0.43 4.82 0.07 2.02-0.57 2.28-1.19 2-4.66-0.3-3.8-0.5-4.02-3.91-4.3-2.03-0.17-4.1 0.26-4.77 1zm-252.14 2.51c-0.83 0.3-2.5 1.5-3.73 2.67-1.87 1.79-2.3 3.53-2.76 11.12-0.3 4.95-0.64 15.07-0.77 22.5-0.24 13.34-0.21 13.5 2.01 13.75 1.24 0.14 3.15-0.65 4.25-1.75 1.38-1.38 1.99-3.31 1.98-6.25-0.01-2.66 0.64-5.01 1.75-6.27 1.01-1.16 4.47-2.66 8.08-3.5l6.3-1.48c9.35 10.43 9.42 10.47 12.78 9.24 1.86-0.68 3.53-1.47 3.7-1.74 0.17-0.27-2.13-3.87-5.11-8-2.99-4.12-7.58-10.42-10.2-14-2.63-3.57-6.13-8.47-7.78-10.88-1.65-2.42-3.79-4.78-4.75-5.26-0.96-0.47-2.31-0.82-3-0.78-0.69 0.04-1.92 0.32-2.75 0.63zm381-0.06c-0.82 0.27-2.62 1-4 1.63-1.37 0.62-3.77 2.27-5.31 3.67-1.55 1.4-3.7 4.57-4.78 7.05-1.08 2.48-2.23 6.52-2.56 9-0.33 2.48-0.32 6.52 0.01 9 0.44 3.26 1.57 5.53 4.12 8.25 1.94 2.06 5.43 4.73 7.77 5.94 3.2 1.64 5.98 2.18 11.25 2.16 5.33-0.02 7.9-0.54 10.75-2.19 2.76-1.59 3.75-2.82 3.75-4.66 0-1.48-0.92-3.12-2.25-4.02-2.07-1.4-2.61-1.32-6.75 0.99-2.47 1.38-5.85 2.51-7.5 2.52-1.65 0.01-4.69-1.11-6.75-2.49-2.55-1.7-4.1-3.7-4.84-6.25-0.8-2.75-0.79-5.09 0.05-8.75 0.63-2.75 1.98-6.35 2.98-8 1.01-1.65 3.35-3.65 5.2-4.45 1.85-0.8 4.93-1.33 6.86-1.18 1.93 0.15 4.63 1.08 6 2.07 1.38 0.98 2.97 3.31 3.54 5.17 0.68 2.2 1.96 3.74 3.66 4.39 2.01 0.76 3.01 0.65 4.26-0.5 0.9-0.82 1.61-2.62 1.58-4-0.03-1.37-0.84-3.69-1.8-5.15-0.96-1.46-3.09-3.69-4.74-4.96-1.65-1.27-5.36-3.11-8.25-4.1-2.89-0.98-6.49-1.75-8-1.71-1.51 0.04-3.43 0.3-4.25 0.57zm53 18.6c-1.09 1.79-3.83 8.2-6.09 14.25-3.43 9.17-4.05 11.92-3.73 16.5 0.25 3.51 1.2 6.68 2.61 8.75 1.35 1.99 4.45 4.28 7.96 5.91 4.36 2.01 7.14 2.62 11.5 2.5 3.43-0.1 6.94-0.87 8.69-1.91 1.62-0.96 3.74-2.87 4.7-4.25 0.97-1.37 3.95-7.9 6.63-14.5 2.68-6.6 5.08-12.9 5.33-14 0.25-1.1 0.1-2.52-0.33-3.16-0.42-0.63-2.46-1.42-4.52-1.75-3.02-0.47-3.86-0.25-4.31 1.16-0.31 0.96-1.48 4.23-2.6 7.25-1.12 3.02-3.23 8.38-4.69 11.89-1.46 3.52-3.77 7.46-5.15 8.76-1.37 1.3-3.51 2.59-4.75 2.86-1.24 0.27-3.91-0.3-5.93-1.26-2.36-1.12-4.15-2.91-5-5-1-2.46-1.07-4.29-0.28-7.5 0.57-2.34 1.77-6.05 2.67-8.25 0.91-2.2 2.52-6.02 3.59-8.5 1.07-2.48 2.22-5.94 2.57-7.7 0.56-2.84 0.31-3.33-2.12-4.25-1.51-0.58-3.21-1.05-3.76-1.05-0.56 0-1.9 1.46-2.99 3.25zm-491.5 0.68c-1.65 0.41-4.8 1.66-7 2.78-2.2 1.12-5.24 3.67-6.75 5.66-1.51 2-3.17 5.77-3.68 8.38-0.58 2.98-0.56 6.43 0.04 9.25 0.54 2.48 2.19 6.73 3.68 9.47 1.87 3.43 4.23 5.9 7.63 8 3.95 2.43 6.03 3.03 10.5 3.02 3.96-0.01 7.18-0.78 11.08-2.65 4.02-1.94 6.38-3.95 8.77-7.49 1.8-2.67 3.28-5.98 3.3-7.35 0.01-1.38-0.56-3.08-1.28-3.78-0.71-0.71-2.35-1.16-3.64-1-1.74 0.21-2.7 1.31-3.71 4.28-0.74 2.2-2.73 5.24-4.4 6.75-2.37 2.14-4.04 2.75-7.54 2.75-2.47 0-5.51-0.46-6.75-1.02-1.24-0.56-3.15-2.47-4.25-4.24-1.1-1.77-2.53-4.57-3.17-6.23-0.65-1.66-1.21-4.58-1.25-6.51-0.04-1.93 0.83-4.96 1.92-6.75 1.1-1.79 3.61-4.04 5.58-5 3.42-1.68 3.77-1.67 8.25 0.11 2.57 1.02 5.74 1.92 7.04 2 1.31 0.08 2.88-0.65 3.5-1.61 0.84-1.29 0.84-2.21 0.01-3.5-0.62-0.96-2.19-2.5-3.5-3.41-1.31-0.92-4.41-1.89-6.88-2.16-2.47-0.27-5.85-0.16-7.5 0.25zm552.27 23.82c-0.85 0.96-5.69 10.07-10.77 20.25l-9.24 18.5c3.67 2.68 5.64 3.48 6.74 3.51 1.5 0.05 2.69-1.45 4.75-5.97 1.51-3.32 3.31-6.28 4-6.58 0.69-0.3 2.38-0.09 3.75 0.45 1.38 0.55 3.52 1.81 4.77 2.79 1.93 1.53 2.38 3.13 3 10.71 0.73 8.89 0.74 8.92 4.52 11.5q3.78 2.58 4.77 1.59c0.65-0.66 0.64-3.9-0.04-9.5-0.56-4.67-1.02-8.84-1.02-9.25 0-0.41 1.91-1.16 4.25-1.67 2.67-0.58 5.47-2.16 7.52-4.25 1.89-1.93 3.53-4.81 3.88-6.83 0.33-1.92 0.34-5.08 0.02-7-0.39-2.36-1.82-4.58-4.38-6.83-2.08-1.83-8.29-5.54-13.79-8.23-5.5-2.7-10.27-4.91-10.6-4.92-0.33-0.01-1.29 0.77-2.13 1.73zm-617.34 6.24c-1.14 0.48-2.45 1.46-2.91 2.19-0.54 0.86 2.61 8.18 9.07 21.08 5.45 10.86 10.36 19.76 10.91 19.77 0.55 0.01 2.46-0.67 4.25-1.51 1.79-0.84 3.26-1.86 3.27-2.27 0.01-0.41-4.06-8.85-9.06-18.75-4.99-9.9-9.84-18.8-10.77-19.78-0.93-0.98-1.91-1.74-2.19-1.69-0.28 0.05-1.43 0.49-2.57 0.96zm-43.7 23.68c-1.5 0.73-2.79 2.12-2.87 3.08-0.08 0.96-0.03 4.67 0.1 8.25 0.2 4.96-0.13 6.85-1.38 8-1.46 1.34-2.4 1.11-9.1-2.25-5.44-2.73-7.96-3.5-9.23-2.85-0.96 0.49-2.54 1.84-3.5 3-1.73 2.08-1.65 2.15 6.5 5.99 4.54 2.14 9.26 4.16 10.5 4.5 1.24 0.33 2.5 1.62 2.8 2.86 0.31 1.24 0.65 7.64 0.75 14.24 0.18 10.56 0.41 12.01 1.95 12.25 0.96 0.14 2.91-0.98 4.33-2.49 2.43-2.58 2.57-3.27 2.25-11.14-0.26-6.62-0.01-8.61 1.17-9.41 1.11-0.76 3.36-0.08 8.75 2.64 3.99 2.01 8.26 3.67 9.5 3.69 1.24 0.01 3.38-1.11 4.75-2.5 1.38-1.39 2.28-2.68 2-2.88-0.27-0.2-5.22-2.65-11-5.44-5.77-2.8-11.07-5.68-11.77-6.4-0.86-0.88-1.27-4.57-1.26-11.31 0-6.54-0.43-10.55-1.25-11.58-1.08-1.36-1.64-1.39-3.99-0.25zm727.8 6.6c-1.08 0.66-2.21 1.5-2.5 1.86-0.29 0.36-3 2.48-6.03 4.7-3.02 2.23-6.18 4.68-7 5.45-0.82 0.77-5.1 4.12-9.5 7.43-4.4 3.32-8.56 6.66-9.23 7.41-1 1.12-0.76 1.81 1.25 3.63 1.36 1.24 3.27 2.26 4.23 2.27 0.96 0.01 3.1-1.35 4.75-3.02 2.03-2.06 3.97-3.04 6-3.02 1.74 0.01 5.2 1.48 8.25 3.52l5.25 3.5c-1.03 8.14-1.25 11.4-1.16 12.5 0.09 1.1 0.73 2.6 1.41 3.32 0.69 0.73 2.36 1.18 3.73 1 2.23-0.29 2.64-1.11 4.16-8.32 0.93-4.4 2.67-12.27 3.87-17.5 1.19-5.23 2.52-11.75 2.96-14.5 0.43-2.75 0.39-5.79-0.1-6.75-0.48-0.96-2.44-2.42-4.37-3.25-1.93-0.83-3.61-1.49-3.75-1.47-0.14 0.02-1.14 0.57-2.22 1.24zm43.56 31.09c-1.15 1.73-4.46 6.15-7.34 9.83-2.89 3.68-7.84 10.09-11 14.25-4.3 5.65-5.56 8.03-5 9.43 0.41 1.03 3.68 4.1 7.25 6.84 3.57 2.73 8.07 5.81 10 6.84 2.27 1.21 5.63 1.88 9.57 1.91 5.1 0.03 6.79-0.43 10.5-2.91 2.44-1.61 5.49-4.09 6.79-5.5 1.3-1.4 3.44-4.91 4.75-7.8 1.77-3.89 2.23-6.22 1.78-9-0.33-2.06-1.44-5.55-2.46-7.75-1.02-2.2-3.33-5.4-5.14-7.11-1.81-1.71-5.76-4.9-8.79-7.1-3.02-2.2-6.24-4.24-7.16-4.53-1.09-0.35-2.36 0.53-3.75 2.6zm-827.59-0.14c-1.1 0.63-2.59 1.74-3.32 2.47-0.73 0.72-1.63 1.32-2 1.33-0.37 0-2.25 1.41-4.18 3.13-1.92 1.71-5.88 4.96-8.78 7.23-2.9 2.27-5.39 4.79-5.53 5.62-0.13 0.83 1.49 3.75 3.62 6.5 2.12 2.75 7.08 9.23 11.02 14.39 3.95 5.17 8.07 10.63 9.17 12.14 1.79 2.46 2.28 2.63 4.59 1.61 1.42-0.63 8.07-5.41 14.79-10.64 7.5-5.84 12.18-10.17 12.16-11.25-0.02-0.96-0.6-2.08-1.29-2.48-0.69-0.39-2.15-0.56-3.25-0.37-1.1 0.19-5.15 2.86-9 5.94-3.85 3.07-8.12 6.16-9.5 6.86-2.25 1.14-2.76 1-5.15-1.47-1.46-1.5-2.92-3.74-3.25-4.98-0.5-1.88 0.43-3.04 5.64-7 3.43-2.61 7.48-5.99 9-7.5 1.52-1.51 2.54-3.42 2.26-4.25-0.28-0.84-1.7-1.51-3.25-1.51-1.85-0.01-5.29 1.95-10.5 6-5.38 4.17-8.28 5.81-9.5 5.37-0.96-0.36-2.53-1.6-3.48-2.75-0.95-1.16-1.75-3.01-1.78-4.11-0.03-1.19 1.87-3.65 4.73-6.08 2.63-2.25 6.71-5.4 9.07-7 2.38-1.62 4.27-3.7 4.25-4.67-0.02-0.96-0.94-2.2-2.04-2.75-1.1-0.55-2.11-0.99-2.25-0.97-0.14 0.02-1.15 0.55-2.25 1.19zm-45.92 36.85c-2.4 1.88-3.86 3.82-3.75 5 0.09 1.06 2.42 6.43 5.17 11.93 2.75 5.5 5.01 10.34 5.03 10.75 0.01 0.41 0.69 1.42 1.51 2.25 0.82 0.83 1.25 2.29 0.97 3.25-0.46 1.57-1.11 1.42-6.26-1.42-3.16-1.74-7.55-4.19-9.75-5.43-2.2-1.24-5.69-3.19-7.75-4.33-2.06-1.14-4.49-2.07-5.39-2.07-0.9 0-2.97 1.46-4.59 3.25-2.23 2.45-2.81 3.87-2.36 5.75 0.32 1.38 3.4 5.44 6.84 9.04 3.44 3.59 9.74 10.23 14 14.75 7.55 8 7.82 8.18 10.5 6.95 1.77-0.82 2.75-2.04 2.75-3.45 0-1.35-2.7-4.96-7.1-9.48-3.91-4.02-7.62-8.32-8.25-9.56-0.63-1.24-0.92-2.48-0.65-2.75 0.28-0.27 3.31 1.08 6.75 3 3.44 1.93 8.5 4.84 11.25 6.46 2.75 1.63 6.24 2.98 7.75 3 2.02 0.03 3.02-0.62 3.75-2.46 0.84-2.09 0.25-4.1-3.59-12.25-2.53-5.36-5.01-10.54-5.5-11.5-0.5-0.96-0.9-2.76-0.88-4 0.02-1.82 1.84-0.38 9.5 7.5 5.21 5.36 9.92 9.75 10.47 9.75 0.55 0 1.9-0.45 3-1 1.1-0.55 1.99-1.79 1.98-2.75-0.01-0.96-3.24-5.12-7.17-9.25-3.93-4.12-10.67-11.21-14.98-15.75-4.31-4.54-8.17-8.25-8.58-8.26-0.41 0-2.51 1.38-4.67 3.08zm918.92 5.85c-1.65 0.4-3.9 1.2-5 1.77-1.1 0.58-4.36 3.69-7.24 6.93-4.4 4.93-5.34 6.69-5.86 10.88-0.34 2.75-0.35 6.8-0.02 9 0.42 2.85 1.95 5.55 5.35 9.4 2.71 3.07 6.61 6.21 9.02 7.25 2.34 1.02 6.5 1.85 9.25 1.85 3.78 0 6.28-0.75 10.25-3.08 2.89-1.7 6.05-4.06 7.03-5.25 0.99-1.2 2.63-3.75 3.65-5.67 1.03-1.92 2.17-5.52 2.55-8 0.49-3.23 0.2-5.77-1.04-9-0.95-2.48-3.58-6.42-5.83-8.77-2.26-2.35-5.46-4.88-7.11-5.63-1.65-0.76-5.02-1.61-7.5-1.89-2.47-0.29-5.85-0.2-7.5 0.21zm-1014.21 96.58c-0.98 1.38-4.43 5.99-7.66 10.25-3.23 4.26-6.95 9.44-8.25 11.5-1.31 2.06-2.38 3.98-2.38 4.25 0 0.27 6.19 5.06 13.75 10.64 7.56 5.58 15.44 11.43 17.5 13 2.06 1.57 4.31 2.88 5 2.91 0.69 0.02 3.93-3.47 7.22-7.75 3.28-4.29 7.9-10.72 10.28-14.3 2.37-3.58 4.3-7.06 4.28-7.75-0.02-0.69-0.82-1.49-1.78-1.78-0.96-0.28-2.61-0.25-3.66 0.08-1.06 0.34-4.08 3.84-6.72 7.78-2.65 3.94-5.61 8.23-6.59 9.53l-1.78 2.37c-6.05-2.89-8.37-4.63-9.07-5.73-1.08-1.73-0.83-2.6 1.91-6.5 1.74-2.48 3.39-4.73 3.67-5 0.27-0.27 1.74-2.19 3.25-4.25 1.51-2.06 2.62-4.54 2.48-5.5-0.15-1.03-1.28-1.87-2.75-2.03-1.37-0.16-3.12 0.29-3.88 1-0.77 0.7-3.06 3.76-5.1 6.78-2.04 3.02-4.45 6.29-5.36 7.25-1.08 1.15-2.43 1.54-3.9 1.14-1.24-0.34-3.27-1.58-4.53-2.75-1.25-1.18-2.26-2.7-2.25-3.39 0.02-0.69 1.51-3.16 3.32-5.5 1.81-2.34 4.74-6.39 6.5-9 1.77-2.61 3.21-5.42 3.21-6.25 0-0.83-0.9-1.95-2-2.5-1.1-0.55-2.21-1-2.46-1-0.25 0-1.26 1.13-2.25 2.5zm1102.15 20.83c-2.19 1.75-2.59 2.7-2.08 4.92 0.36 1.54 1.76 3.3 3.17 4 2.26 1.11 2.82 0.97 5.09-1.25 1.67-1.64 2.37-3.19 2.03-4.5-0.29-1.1-1.65-2.75-3.01-3.67-2.36-1.58-2.62-1.55-5.2 0.5zm-1134.72 30.22c-0.9 0.77-5.48 7.83-10.18 15.68-4.7 7.85-8.55 14.83-8.54 15.52 0 0.69 1.01 1.76 2.25 2.38 1.95 0.99 2.52 0.78 4.25-1.53 1.1-1.47 3.13-4.06 4.5-5.77l2.5-3.11c24.03 14.14 31.68 18.26 32.5 18.29 0.83 0.03 2.06-1.09 2.75-2.48 0.69-1.39 1.25-3.2 1.25-4.03 0-0.88-6.39-5.21-15.5-10.5-11.83-6.87-15.5-9.47-15.5-11 0-1.1 1.13-3.69 2.5-5.75 1.38-2.06 2.52-4.2 2.54-4.75 0.01-0.55-0.81-1.75-1.83-2.67-1.59-1.45-2.07-1.49-3.49-0.28zm1201.78 56.46c-5.5 2.67-13.82 6.63-18.5 8.79-4.79 2.21-8.83 4.75-9.26 5.81-0.48 1.18-0.2 2.74 0.75 4.14 0.83 1.24 2.07 2.24 2.76 2.23 0.69-0.01 5.75-2.27 11.25-5.02 5.5-2.75 10.68-5.01 11.5-5.01 0.83 0 1.83 0.34 2.24 0.77 0.41 0.43-1.16 2.35-3.5 4.26-2.33 1.91-7.07 6.19-10.52 9.5-3.46 3.31-6.28 6.69-6.27 7.52 0.01 0.83 0.59 2.33 1.28 3.33 1.18 1.71 1.88 1.75 10.27 0.6 4.95-0.68 11.81-1.39 15.25-1.58 3.44-0.19 6.24-0.01 6.23 0.4-0.02 0.41-5.65 3.45-12.53 6.75-11.53 5.54-12.49 6.21-12.47 8.75 0.01 2 0.63 2.91 2.27 3.34 1.45 0.38 4.91-0.65 9.75-2.9 4.13-1.91 12.68-5.93 19-8.92 6.94-3.28 11.8-6.2 12.26-7.35 0.53-1.33-0.09-3.28-2-6.32-2.69-4.3-2.86-4.39-6.76-3.7-2.2 0.38-8.27 1.33-13.5 2.11-5.22 0.77-10.51 1.65-11.75 1.95-1.43 0.34-2.24 0.08-2.22-0.71 0.02-0.69 2.39-3.5 5.27-6.25 2.88-2.75 7.81-7.36 10.97-10.25 4.05-3.71 5.73-5.98 5.73-7.75 0-1.37-0.9-4.08-2-6-1.14-2-2.75-3.47-3.75-3.43-0.96 0.05-6.25 2.27-11.75 4.94zm-1233.22 0.92c-1.22 0.51-3.3 2.42-4.63 4.25-1.34 1.83-4.5 7.59-7.03 12.82-2.53 5.23-4.62 10.4-4.65 11.5-0.03 1.1 0.52 2.47 1.24 3.05 0.71 0.58 5.57 3.02 10.79 5.43 5.23 2.4 13.55 6.33 18.5 8.72l9 4.34c3.53-3.52 4.54-5.55 4.53-6.79-0.03-1.81-1.29-2.78-6.54-5-5.56-2.35-6.5-3.11-6.48-5.25 0.01-1.37 1.03-3.93 2.26-5.67 2.06-2.92 2.87-3.25 10.73-4.27 6.48-0.84 9.04-1.63 10.78-3.33 1.25-1.23 2.26-3.24 2.25-4.48-0.03-2.19-0.22-2.23-7.78-1.6-4.26 0.35-8.36 0.69-9.11 0.75-0.75 0.05-1.73-0.57-2.17-1.4-0.44-0.83-1.4-3.02-2.14-4.87-0.73-1.85-2.79-4.44-4.58-5.75-1.91-1.4-5.21-2.58-8-2.87-2.61-0.28-5.75-0.08-6.97 0.42zm1271.56 57.83c-0.84 0.2-1.83 1-2.19 1.8-0.36 0.79-3.24 4.84-6.4 8.99-5.26 6.91-6.01 7.52-8.75 7.11-1.65-0.24-5.92-0.98-9.5-1.63-3.57-0.65-7.29-1.6-8.25-2.11-0.96-0.51-2.87-0.92-4.25-0.92-1.56 0-2.5 0.57-2.5 1.5 0 0.83 0.68 2.85 1.5 4.5 1.15 2.31 2.37 3.13 5.25 3.56 2.06 0.31 5.1 0.97 6.75 1.47 1.65 0.49 4.24 1.14 5.75 1.44 1.51 0.29 2.75 0.98 2.75 1.53 0 0.55-2.36 4.02-5.25 7.7-4.46 5.69-5.25 7.35-5.25 10.95 0 2.33 0.45 4.72 1 5.3 0.69 0.74 1.8 0.22 3.61-1.69 1.43-1.52 4.97-5.91 7.87-9.76 2.9-3.85 6.23-7.51 7.39-8.14 1.29-0.69 2.92-0.81 4.13-0.31 1.1 0.46 4.93 1.36 8.5 2 3.58 0.65 7.63 1.24 9 1.31 2.2 0.12 2.46-0.22 2.19-2.86-0.17-1.65-1.3-3.81-2.5-4.79-1.2-0.99-2.98-1.78-3.94-1.75-0.96 0.02-4.22-0.63-7.25-1.46-3.02-0.83-5.48-1.84-5.46-2.25 0.02-0.41 2.26-3.67 4.99-7.25 4.39-5.75 4.88-6.9 4.34-10-0.34-1.92-0.92-3.74-1.3-4.04-0.38-0.3-1.38-0.39-2.23-0.2zm-1304.29 14.49c-0.81 1.24-1.76 3.6-2.1 5.25-0.58 2.82-0.02 3.5 9.58 11.5 5.61 4.67 13.52 11.31 17.58 14.75 4.07 3.44 8.29 6.25 9.39 6.25 1.1 0 2.23-0.67 2.5-1.5 0.28-0.83 0.5-2.85 0.5-4.5q0.01-3.01-1.75-3.47c-0.96-0.26-3.1-1.84-4.75-3.53l-3-3.05c3.58-9.65 5.38-13.28 6.31-14.3 1.31-1.44 2.79-1.78 6.55-1.5 4.22 0.3 5.11 0.02 6.78-2.15 1.06-1.37 1.91-3.29 1.89-4.25-0.03-1.62-1.85-1.75-24.01-1.75-23.76 0-23.99 0.02-25.47 2.25zm690.2 55.37c-1.22 0.26-1.67 1.19-1.5 3.07 0.23 2.47 0.87 2.85 7.75 4.58 4.13 1.04 8.13 2.37 8.89 2.95 1.14 0.86 1.33 5.01 1 22.67l-0.39 21.61c-5.42-0.43-12.85-0.82-20-1.15-11.7-0.54-13.75-0.37-20.5 1.68-4.12 1.25-9.07 3.26-11 4.47-1.92 1.2-4.89 3.49-6.58 5.09-1.7 1.6-4.51 5.27-6.25 8.16-1.74 2.89-4.1 8.06-5.25 11.5-1.14 3.44-2.53 11.2-3.08 17.25-0.7 7.63-0.67 14.21 0.08 21.5 0.6 5.78 1.92 12.97 2.93 16 1.02 3.03 3.13 7.53 4.69 10 1.56 2.47 3.99 5.57 5.4 6.87 1.41 1.31 4.14 3.38 6.06 4.6 1.93 1.22 5.98 3.04 9 4.05 3.86 1.28 8.33 1.81 15 1.76 6.44-0.04 11.27-0.66 15-1.91 3.03-1.02 7.64-3.09 10.25-4.61 3.91-2.27 4.84-2.49 5.25-1.26 0.28 0.83 0.73 2.17 1 3 0.42 1.26 2.88 1.46 15.25 1.25l14.75-0.25c0-3.71-0.67-5.14-1.5-5.58-0.82-0.44-3.65-1.62-6.28-2.61l-4.79-1.81c0.07-140.84-0.12-150.69-1.43-152-1.21-1.21-4.42-1.48-16.75-1.38-8.39 0.06-16.04 0.28-17 0.5zm253.91 44.63c-4.96 10.01-5.99 11.43-9.37 12.9-2.08 0.91-3.11 1.7-2.29 1.75 0.83 0.05 2.85-0.72 4.5-1.7 2.12-1.27 4.62-4.95 8.5-12.54 3.03-5.91 5.95-10.92 6.5-11.12 0.55-0.21 0.26-0.42-0.64-0.46-1.11-0.05-3.4 3.49-7.2 11.17zm11.04-10.55c0.77 0.51 1.31 4.54 1.5 11.22 0.17 5.78 0.75 10.57 1.3 10.75 0.65 0.22 0.82-3.64 0.5-10.91-0.46-10.27-0.67-11.27-2.5-11.55-1.27-0.2-1.56-0.02-0.8 0.49zm-695.2 21.3c-2.2 1.02-3.44 1.89-2.75 1.93 0.69 0.04 3.16-0.57 5.5-1.35 2.34-0.79 5.38-1.63 6.75-1.87 1.59-0.28 1.04-0.46-1.5-0.5-2.2-0.03-5.8 0.77-8 1.79zm22-1.33c1.65 0.2 5.48 1.1 8.5 2 3.03 0.9 7.53 2.96 10 4.58 2.48 1.62 5.96 4.92 7.75 7.35 1.79 2.42 3.27 4.74 3.29 5.15 0.02 0.41 1.13 3 2.48 5.75 1.78 3.64 2.28 4.18 1.82 2-0.34-1.65-1.69-5.14-2.98-7.75-1.3-2.61-3.82-6.39-5.61-8.4-1.79-2.01-4.82-4.64-6.75-5.84-1.92-1.2-5.75-2.94-8.5-3.86-2.75-0.92-6.8-1.6-9-1.51-3.25 0.13-3.44 0.23-1 0.53zm104.89 0.2c-0.38 0.48-2.09 1.15-3.8 1.49-1.7 0.34-2.86 0.82-2.59 1.07 0.28 0.25 2.3-0.01 4.5-0.57 2.2-0.56 5.58-1.38 7.5-1.82l3.5-0.81c-6.51-0.18-8.72 0.16-9.11 0.64zm16.61-0.18c1.38 0.24 3.96 1.07 5.75 1.87 1.79 0.79 3.63 1.44 4.11 1.44 0.47 0 1.93 1.1 3.25 2.45 1.31 1.35 2.87 3.04 3.45 3.75 0.58 0.72 1.58 2.2 2.22 3.3 0.64 1.1 1.17 1.44 1.19 0.75 0.02-0.69-1.45-3.16-3.27-5.5-1.81-2.34-5.3-5.24-7.75-6.44-2.45-1.21-6.02-2.16-7.95-2.11-2.57 0.05-2.84 0.18-1 0.49zm105 0.78c-1.37 0.8-3.06 1.48-3.75 1.49-0.69 0.02-4.96 1.87-9.5 4.11-4.54 2.25-9.46 4.83-10.94 5.75-1.48 0.93-2.96 1.45-3.29 1.18-0.32-0.27-0.91-2.61-1.3-5.19-0.65-4.2-1.03-4.75-3.72-5.26-1.65-0.32-7.27-0.57-12.5-0.57-5.22 0-10.97 0.34-12.77 0.76-2.35 0.54-3.28 1.33-3.29 2.76 0 1.52 1.38 2.52 5.78 4.18 3.18 1.19 6.33 2.77 7.01 3.5 0.93 1.01 1.17 11.29 1 43.31l-0.23 41.99c-11.99 4.79-13 5.57-13 7.61v2.41c37.98 0.41 49.56 0.3 50.25 0.01 0.81-0.33 0.99-1.27 0.5-2.67-0.41-1.19-1.65-2.51-2.75-2.93-1.1-0.42-5.05-1.58-8.77-2.59l-6.78-1.82c0.05-74.64 0.18-77.57 1.8-78.39 0.96-0.49 4.56-1.61 8-2.5 3.44-0.88 8.39-1.69 11-1.79 2.61-0.09 5.31 0.13 6 0.5 0.69 0.38 2.49 3.17 4 6.21 2.35 4.72 3.15 5.52 5.5 5.5l2.75-0.03-0.5-28.5c-6.2-0.37-9.12 0.17-10.5 0.97zm51 0.49c-3.02 0.97-7.3 2.88-9.5 4.24-2.2 1.36-5.8 4.53-8 7.04-2.2 2.51-4.97 6.52-6.16 8.91-1.19 2.39-2.99 7.05-4 10.35-1.51 4.94-1.83 9.28-1.79 24.5 0.04 15.83 0.35 19.51 2.16 25.5 1.15 3.85 2.78 8.35 3.61 10 0.83 1.65 3.69 5.41 6.35 8.35 2.66 2.94 6.18 6.02 7.83 6.84 1.65 0.83 5.7 2.42 9 3.54 4.69 1.6 8.51 2.04 17.5 2.02 8-0.01 13.17-0.54 17-1.73 3.03-0.94 7.75-2.61 10.5-3.7 2.75-1.1 5.57-2.75 6.27-3.66 0.69-0.91 1.26-2.67 1.25-3.91-0.02-2.09-0.36-2.21-4.77-1.74-2.61 0.28-11.05 0.77-18.75 1.08-13.32 0.55-14.27 0.46-19.5-1.86-3.53-1.57-7.04-4.2-9.78-7.33-2.36-2.7-4.99-6.93-5.86-9.4-0.87-2.47-1.92-8.33-2.33-13-0.42-4.67-0.6-9.06-0.39-9.75 0.28-0.96 7.34-1.27 30.61-1.35 16.64-0.05 31.38-0.41 32.75-0.79 2.22-0.61 2.53-1.3 2.81-6.15 0.17-3-0.39-9.62-1.25-14.71-0.88-5.23-2.86-12.08-4.56-15.75-2.35-5.09-4.25-7.48-8.75-10.99-3.57-2.79-8.21-5.26-12.25-6.51-4.68-1.46-9.02-1.99-15.5-1.91-5.55 0.07-11.11 0.78-14.5 1.87zm212-0.32l-4.5 1.37c8.53-0.97 13.48-1.58 16.5-1.98l5.5-0.74c-10.07-0.02-15.02 0.59-17.5 1.35zm29.83-0.79c1.28 0.32 4.88 1.22 8 2 3.12 0.78 6.35 2.02 7.17 2.76 0.83 0.74 1.94 1.35 2.49 1.36 0.54 0.02 1.89 1.25 3 2.74 1.1 1.5 2.76 4.31 3.68 6.25 0.92 1.95 1.72 3.09 1.77 2.54 0.06-0.55-0.58-2.69-1.42-4.75-0.83-2.06-3.43-5.25-5.77-7.08-2.34-1.83-6.27-4.08-8.75-4.99-2.47-0.92-6.3-1.61-8.5-1.54-2.92 0.1-3.37 0.29-1.67 0.71zm102.67 2.6c-4.4 1.82-10.7 4.91-14 6.88-3.3 1.96-6.34 3.37-6.75 3.12-0.41-0.25-0.76-0.11-0.78 0.3-0.01 0.41 0.21 1.09 0.5 1.5 0.29 0.41 1.77-0.03 3.28-0.98 1.51-0.95 2.98-1.97 3.25-2.28 0.28-0.3 3.65-2.1 7.5-3.99 3.85-1.88 9.25-4.22 12-5.18 2.75-0.97 6.46-1.77 8.25-1.79l3.25-0.03c0.3 27.63 0.36 28.01 1.07 20.5 0.42-4.4 0.91-8.67 1.07-9.5 0.17-0.83-0.02-3.86-0.42-6.75l-0.72-5.25c-7.7 0.12-12.53 1.4-17.5 3.45zm121-0.36c-3.85 1.62-7.9 3.73-9 4.68-1.1 0.95-3.49 3.31-5.32 5.23-1.82 1.92-4.16 5.3-5.2 7.5-1.03 2.2-2.8 6.48-3.93 9.5-1.13 3.03-2.03 6.63-2.01 8 0.04 2.02 0.33 1.73 1.49-1.5 0.79-2.2 1.44-4.67 1.43-5.5-0.01-0.83 1.54-4.65 3.44-8.5 1.9-3.85 5.18-8.59 7.28-10.53 2.1-1.94 5.4-4.45 7.32-5.57 1.93-1.13 5.98-2.79 9-3.7 3.03-0.91 6.63-1.82 8-2.04 1.44-0.22 0.8-0.42-1.5-0.45-2.31-0.04-6.95 1.17-11 2.88zm26-2.05c2.2 0.43 5.91 1.28 8.25 1.87 2.34 0.6 5.94 2.14 8 3.42 2.06 1.28 5.4 4.31 7.41 6.75 2.01 2.43 4.46 6.44 5.44 8.92 0.98 2.48 1.92 3.94 2.09 3.25 0.17-0.69-1.21-4.06-3.06-7.5-2.25-4.18-4.98-7.46-8.25-9.91-2.68-2.01-7.35-4.59-10.38-5.75-3.02-1.15-7.3-2.03-9.5-1.96l-4 0.12zm-800.5 5.35c-1.92 1.26-5.23 4.27-7.34 6.7-2.11 2.42-4.92 6.55-6.25 9.16-1.32 2.61-2.4 5.31-2.4 6 0.01 0.69 1.87-2.12 4.14-6.25 2.26-4.12 5.97-9.19 8.23-11.26 2.27-2.07 4.57-3.74 5.12-3.71 0.55 0.03 1.58-0.64 2.28-1.49 0.7-0.84 0.93-1.51 0.5-1.48-0.43 0.03-2.35 1.08-4.28 2.33zm79.97-0.64c-0.02 0.96 0.77 2.46 1.75 3.34 0.98 0.87 3.36 2.18 5.28 2.91 1.93 0.74 4.08 1.82 4.79 2.42 1.03 0.85 1.29 9.85 1.25 42.83l-0.04 41.75c-7.01 3.18-7.8 3.88-6.5 3.93 1.1 0.03 3.46-0.84 5.25-1.93l3.25-2v-84c-4.26-3.18-7.19-4.53-9.25-5.05-2.06-0.52-3.8-1.51-3.87-2.2-0.06-0.69-0.12-1.81-0.13-2.5-0.01-0.69-0.4-1.25-0.88-1.25-0.48 0-0.88 0.79-0.9 1.75zm31.1-0.25c-0.06 1.1 0.47 2.82 1.16 3.83 1.22 1.75 1.49 1.73 6.77-0.58 3.03-1.32 6.63-2.9 8-3.51 1.38-0.61 1.94-1.13 1.25-1.17-0.69-0.04-4.29 1.29-8 2.95-3.71 1.67-6.86 3.02-7 3-0.14-0.01-0.66-1.48-1.16-3.27-0.58-2.07-0.95-2.52-1.02-1.25zm400.31 9.5c0 6.33 0.16 8.8 0.36 5.5 0.2-3.3 0.2-8.47 0-11.5-0.2-3.02-0.36-0.32-0.36 6zm87.8-8.25c0.28 2.37 1.15 3.04 6.32 4.87l6 2.13v85.67c-11.86 4.8-12.55 5.38-12.53 7.83 0.02 1.97 0.52 2.73 1.78 2.67 0.96-0.04 1.19-0.27 0.5-0.5-0.69-0.23-1.27-1.21-1.29-2.17-0.02-1.07 1.25-2.26 3.25-3.06 1.81-0.72 4.87-2.07 6.79-3l3.5-1.69 0.5-85.5c-6.59-2.94-9.74-4.29-11.25-4.9-2.05-0.82-2.62-1.61-2.25-3.1 0.28-1.1 0.02-2-0.57-2-0.59 0-0.93 1.24-0.75 2.75zm-73.18 5.39c-2.47 1.1-4.56 2.08-4.63 2.18-0.06 0.1-0.42 1.31-0.78 2.68l-0.66 2.5c2.45-4.46 4.33-5.64 7.73-6.58 2.66-0.73 5.97-1.63 7.34-2.01 2.18-0.59 2.05-0.68-1-0.72-1.92-0.03-5.52 0.85-8 1.95zm23.89-0.37c1.87 0.95 4.31 3.08 5.44 4.73 1.38 2.03 2.33 5.74 2.93 11.5 0.5 4.68 0.75 10.64 0.57 13.25-0.19 2.72 0.1 4.75 0.67 4.76 0.65 0 0.78-4.34 0.38-12.26-0.45-8.92-1.1-13.2-2.42-15.75-1-1.92-2.97-4.53-4.39-5.78-1.41-1.26-3.47-2.26-4.57-2.23-1.5 0.04-1.16 0.48 1.39 1.78zm-434.39 3.74l-3 1.42c6.2-0.96 9.13-1.58 10.5-2 2.25-0.68 2.14-0.76-1-0.8-1.92-0.02-4.85 0.6-6.5 1.38zm32.25 0.28c1.79 0.94 4.15 3.06 5.24 4.71 1.43 2.15 2 2.5 2 1.25 0.01-0.96-1.68-3.1-3.74-4.76-2.06-1.65-4.42-2.98-5.25-2.95-0.82 0.02-0.04 0.81 1.75 1.75zm558.32 34.96c0.04 20.21 0.46 37.65 0.93 38.75 0.5 1.16 0.89-14.19 0.93-36.75 0.05-25.21-0.28-38.75-0.93-38.75-0.65 0-0.98 12.87-0.93 36.75zm-550.57 11.07v37.67c-8.78 3.11-11.54 4.24-11.8 4.51-0.25 0.28 1.85-0.07 4.67-0.78 2.82-0.7 6.14-1.93 7.38-2.75l2.25-1.47c-0.4-57.32-0.9-72.17-1.5-73.18-0.68-1.14-1 10.42-1 36zm422.74 2.93l-0.24 35.25c4.65 2.33 6.79 2.85 7.75 2.68 1.05-0.2 0.04-0.9-2.51-1.75l-4.26-1.43-0.51-70zm255.14-21.51c0.07 7.01 0.46 12.74 0.88 12.75 0.41 0.01 0.69-4.38 0.63-9.74-0.07-5.36-0.46-11.1-0.88-12.75-0.45-1.77-0.71 2.23-0.63 9.74zm-767.27 1.51c-0.06 6.9 0.28 11.25 0.9 11.25 0.59 0 0.96-3.52 0.9-8.75-0.06-4.81-0.46-9.87-0.9-11.25-0.51-1.6-0.84 1.57-0.9 8.75zm461.4 3.22c-1.13 0.47 3.03 0.6 9.5 0.29 6.32-0.29 11.68-0.7 11.91-0.9 0.23-0.2-4.04-0.33-9.5-0.29-5.45 0.04-10.81 0.44-11.91 0.9zm-7.5 1.74c-0.83 0.3-3.3 1.36-5.5 2.34-2.2 0.99-5.4 3.29-7.1 5.12-1.71 1.83-3.85 4.46-4.76 5.83-0.91 1.38-1.66 2.95-1.67 3.5-0.01 0.55 1.46-1.09 3.26-3.65 1.79-2.56 4.57-5.5 6.17-6.53 1.59-1.02 4.29-2.6 6-3.5 1.7-0.9 4.45-2.1 6.1-2.65q3.01-1.01 1-1.01c-1.1 0-2.68 0.25-3.5 0.55zm229.11 25.04c-0.06 1.79 0.83 6.06 1.99 9.5 1.15 3.44 2.95 7.94 4 10 1.04 2.06 3.86 5.66 6.25 8 2.4 2.34 6.45 5.26 9 6.5 2.56 1.24 4.85 2.14 5.1 2 0.25-0.14-1.66-1.37-4.25-2.74-2.59-1.37-6.74-4.52-9.22-7-2.49-2.48-5.51-6.53-6.71-9.01-1.2-2.47-2.68-6.52-3.3-9-0.62-2.47-1.49-6.07-1.93-8l-0.81-3.5zm-250.4 2.5c-0.28 2.34-0.17 6.28 0.26 8.75 0.67 3.89 0.79 3.32 0.9-4.25 0.07-4.81-0.05-8.75-0.26-8.75-0.21 0-0.61 1.91-0.9 4.25zm-496.61-1.75c-0.04 1.1 0.63 4.03 1.49 6.5 0.86 2.48 1.88 4.73 2.26 5 0.38 0.28 1.47 1.74 2.41 3.25 0.95 1.51 4.43 4.33 7.73 6.25 3.3 1.93 7.01 3.47 8.25 3.44 1.43-0.05 0.23-0.86-3.25-2.22-3.41-1.34-7.3-3.98-10.25-6.94-3.61-3.63-5.21-6.28-6.65-11.03-1.05-3.44-1.95-5.35-1.99-4.25zm767.91 2.25c0.02 0.96 0.85 3.55 1.85 5.75 1 2.2 3.13 5.53 4.73 7.4 1.59 1.87 5.15 4.67 7.9 6.24 2.75 1.56 6.13 2.83 7.5 2.81 1.76-0.01 1.03-0.54-2.5-1.79-2.75-0.98-6.17-2.65-7.61-3.72-1.44-1.07-3.99-3.74-5.66-5.94-1.67-2.2-3.48-5.91-4.03-8.25-0.54-2.34-1.26-4.25-1.59-4.25-0.33 0-0.6 0.79-0.59 1.75zm-785.48 9.75c0.36 1.65 2.16 5.25 3.99 8 1.84 2.75 4.84 6.42 6.66 8.15 1.82 1.73 5.11 4.1 7.31 5.25 2.2 1.16 4.68 2.11 5.5 2.1 0.83 0-0.85-1.24-3.74-2.75-2.88-1.51-6.93-4.41-9-6.44-2.06-2.02-4.21-4.27-4.76-5-0.55-0.72-2.26-3.78-3.8-6.81-1.94-3.81-2.61-4.58-2.16-2.5zm723.53 5.75c-0.04 0.96 1.17 2.88 2.68 4.25 1.51 1.38 3.43 2.51 4.25 2.51 0.83 0 0.07-1.01-1.7-2.26-1.76-1.24-3.64-3.15-4.18-4.25-0.85-1.73-0.99-1.77-1.05-0.25zm-207.12 3.25c0 0.55 1.1 3.03 2.46 5.5 1.35 2.48 3.84 5.51 5.53 6.75 1.68 1.24 3.29 2.25 3.56 2.25 0.28 0-1.5-1.91-3.95-4.25-2.46-2.34-4.49-4.92-4.54-5.75-0.04-0.82-0.74-2.4-1.56-3.5-0.81-1.1-1.49-1.55-1.5-1zm-449.45 2.07l-7 1.33c9.3-0.56 13.01-0.98 14.25-1.31 1.76-0.46 2.38-0.09 2.84 1.66 0.38 1.48-0.05 2.84-1.25 3.97-1.01 0.94-4.54 2.88-7.84 4.3-3.3 1.41-4.87 2.35-3.5 2.07 1.38-0.27 4.64-1.41 7.25-2.54 2.61-1.13 5.2-2.95 5.75-4.05 0.55-1.1 0.89-3.01 0.75-4.25-0.16-1.44-0.96-2.3-2.25-2.38-1.1-0.07-5.15 0.47-9 1.2zm637.49-0.57c-0.02 0.83 0.75 3.08 1.71 5 0.96 1.93 2.43 4.18 3.29 5 0.85 0.83 2.77 2.29 4.28 3.25 1.5 0.96 3.52 1.71 4.48 1.67 1.03-0.05 0.28-0.77-1.84-1.75-1.97-0.92-4.4-2.34-5.4-3.17-1.01-0.82-2.88-3.75-4.16-6.5-1.28-2.75-2.34-4.32-2.36-3.5zm130.01 0.5l-6.5 1.26c7.36 0.19 10.74-0.22 12.25-0.79 1.89-0.7 3.06-0.7 3.75 0.02q1 1.03 0 3.68c-0.73 1.95-2.72 3.4-7.5 5.45-3.57 1.54-5.94 2.82-5.25 2.84 0.69 0.02 3.84-1.14 7-2.58 3.16-1.43 6.3-3.35 6.97-4.25 0.67-0.89 1.23-2.64 1.25-3.88 0.02-1.24-0.64-2.47-1.47-2.75-0.82-0.27-2.06-0.44-2.75-0.38-0.69 0.07-4.17 0.69-7.75 1.38zm-187.24 1.42c0.11 0.32 2.67 1.26 5.68 2.08 3.02 0.83 5.71 1.28 5.99 1 0.29-0.27-2.27-1.21-5.68-2.08-3.41-0.86-6.1-1.31-5.99-1zm-516.26 1.62c1.65 0.75 3.9 1.35 5 1.33 1.54-0.02 1.31-0.35-1-1.41-1.65-0.75-3.9-1.35-5-1.33-1.54 0.02-1.31 0.35 1 1.41zm439.86 2.1c-2.12 1.43-5.88 3.65-8.36 4.94-2.47 1.28-3.94 2.35-3.25 2.37 0.69 0.03 3.16-0.92 5.5-2.1 2.34-1.18 5.49-3.1 7-4.25 2.75-2.1 2.76-2.1 4.2-0.1 1.4 1.93 1.43 1.92 0.75-0.38-0.38-1.31-0.99-2.54-1.34-2.73-0.36-0.2-2.39 0.81-4.5 2.25zm-430.97 0.59c1.33 0.9 1.7 1.93 1.25 3.52-0.44 1.54-0.24 2.15 0.61 1.92 0.69-0.19 1.28-1.17 1.32-2.19 0.04-1.01-0.63-2.45-1.5-3.18-0.86-0.73-2.02-1.33-2.57-1.33-0.55 0-0.15 0.57 0.89 1.26zm231.57 85.6c-0.8 1-2.02 2.8-2.71 4-1 1.74-1 2.26 0 2.61 0.69 0.24 2.93-1.23 4.99-3.25 2.05-2.03 3.74-4.03 3.75-4.44 0.01-0.41-1.02-0.75-2.28-0.75-1.26 0-2.95 0.82-3.75 1.83zm-199.84 13.25c-2.71 1.24-5.47 3.6-7.27 6.21-2.55 3.69-2.9 5.08-2.86 11.21 0.03 5.37 0.57 7.93 2.31 11 1.27 2.24 4.01 4.99 6.23 6.25 2.19 1.24 6.45 2.52 9.47 2.85 4.26 0.48 6.85 0.12 11.5-1.56 3.3-1.2 6.77-3.16 7.72-4.36 1.11-1.41 1.73-4.02 1.75-7.43 0.03-4.59-0.22-5.25-1.97-5.25-1.25 0-1.98 0.65-1.95 1.75 0.03 1.34-0.26 1.49-1.25 0.64-0.72-0.62-4-1.41-7.3-1.77-5.37-0.58-5.84-0.48-4.5 0.88 0.83 0.84 3.53 1.63 6 1.76 4.44 0.24 4.51 0.29 4.75 3.99 0.24 3.56 0.03 3.85-4.25 5.75-2.47 1.1-5.96 1.99-7.75 1.98-1.79-0.01-5.16-0.91-7.5-2-2.34-1.09-5.04-3.2-6-4.69-1.25-1.94-1.75-4.75-1.75-9.93 0-6.45 0.29-7.53 2.66-10.04 1.47-1.55 4.39-3.45 6.5-4.23 3.21-1.17 4.59-1.19 8.34-0.11 2.55 0.73 5.59 2.54 7 4.17 1.38 1.58 3.29 2.86 4.25 2.86 1.14-0.01 1.76-0.8 1.78-2.26 0.01-1.24-1-3.19-2.25-4.34-1.25-1.14-3.97-2.83-6.03-3.75-2.06-0.91-5.89-1.64-8.5-1.62-2.61 0.02-6.72 0.93-9.13 2.04zm48.74 1.48c-1.26 1.95-2.12 3.8-1.91 4.1 0.21 0.29-0.34 1.96-1.22 3.69-0.87 1.73-3.44 7.65-5.69 13.15-2.26 5.5-4.58 10.9-5.16 12-0.8 1.51-0.73 2.19 0.28 2.75 0.74 0.41 1.95 0.64 2.69 0.5 0.74-0.14 1.87-1.82 2.51-3.75 0.64-1.92 1.95-4.74 2.91-6.25 1.67-2.65 2.05-2.75 10.23-2.75h8.5c5.32 10.75 6.96 12.93 7.75 12.57 0.69-0.32 1.7-0.57 2.25-0.57 0.56 0 0.37-1.21-0.44-2.75-0.79-1.51-2.39-5.22-3.55-8.25-1.17-3.02-2.78-6.96-3.57-8.75-0.79-1.79-2.04-4.71-2.79-6.5-0.74-1.79-2.31-5.39-3.5-8-1.7-3.76-2.65-4.75-4.57-4.75-1.67 0-3.12 1.1-4.72 3.56zm30.78-2.35c-0.27 0.74-0.41 9.67-0.31 19.82l0.17 18.47c22 0 24-0.25 24-1.5 0-1.19-1.94-1.6-9.5-2l-9.5-0.5c-0.94-32.86-1.2-35.02-2.69-35.31-0.93-0.19-1.91 0.27-2.17 1.02zm33.41-0.56c-1.21 0.43-1.41 3.69-1.25 19.43 0.2 18.72 0.23 18.93 2.45 19.46 1.24 0.29 8.33 0.41 15.75 0.25 11.21-0.24 13.5-0.54 13.5-1.79 0-1.23-2.12-1.55-12-1.77-10.01-0.23-12.21-0.56-13.27-2-0.69-0.95-1.25-3.64-1.25-5.98 0.01-2.34 0.25-4.92 0.52-5.75 0.4-1.21 2.5-1.49 10.75-1.46 7.13 0.04 10.63-0.34 11.49-1.25 0.69-0.71 0.91-1.64 0.5-2.07-0.4-0.43-5.13-0.76-10.49-0.75-5.36 0.02-10.42-0.19-11.25-0.47-1.04-0.35-1.51-1.95-1.54-5.25-0.03-2.66 0.52-5.28 1.25-5.95 0.8-0.74 5.66-1.31 12.79-1.5 9.42-0.24 11.5-0.57 11.5-1.8 0-1.25-2.3-1.53-14-1.68-7.7-0.11-14.65 0.04-15.45 0.33zm40 0.01c-1.21 0.42-1.41 3.67-1.25 19.42 0.17 15.81 0.45 19 1.7 19.42 0.83 0.28 1.95 0.28 2.5 0 0.55-0.27 1-2.97 1-6 0-3.02 0.45-6.4 1-7.5 0.82-1.64 2-2 6.5-2 5.45 0 5.54 0.05 9.25 5.05 2.06 2.77 4.88 6.37 6.25 8 1.82 2.14 3.12 2.81 4.75 2.45 2.16-0.48 2.05-0.79-2.75-7.5l-5-7c6.07-5.81 8.15-8.85 8.54-10.5 0.4-1.68 0.2-4.54-0.45-6.5-0.84-2.54-2.32-4.11-5.38-5.73-3.6-1.9-5.72-2.21-14.71-2.17-5.77 0.03-11.15 0.29-11.95 0.56zm44.61 0.54c-0.28 0.75-0.43 9.68-0.33 19.83 0.15 15.67 0.4 18.47 1.67 18.47 1.28 0 1.5-2.82 1.5-19.42 0-13.91-0.33-19.53-1.17-19.83-0.64-0.23-1.39 0.2-1.67 0.95zm24.85 4.49c-1.47 3.2-3.05 6.71-3.52 7.81-0.47 1.1-1.52 3.58-2.34 5.5-0.82 1.93-3.1 7.21-5.07 11.75-1.97 4.54-3.13 8.25-2.58 8.25 0.55 0 1.56 0.25 2.25 0.57 0.8 0.36 2.43-1.82 4.5-6l3.25-6.57 17.33 0.5c3.55 6.2 4.6 8.79 4.63 9.75 0.03 1.27 0.87 1.75 3.04 1.75h3c-2.49-5.81-3.88-9.07-4.7-11-0.81-1.92-2.11-4.74-2.88-6.25-0.78-1.51-1.43-3.31-1.44-4-0.02-0.69-0.96-3.27-2.09-5.75-1.14-2.47-2.88-6.07-3.87-8-1.22-2.37-2.61-3.6-4.32-3.81-2.2-0.27-2.86 0.43-5.19 5.5zm44.54-5.03c-1.21 0.42-1.41 3.67-1.25 19.42 0.17 15.81 0.45 19 1.7 19.42 0.83 0.28 5.21 0.49 9.75 0.48 6.22-0.02 9.36-0.54 12.75-2.11 2.48-1.14 4.97-2.6 5.54-3.23 0.57-0.63 2.02-2.71 3.22-4.64 1.69-2.71 2.19-5.08 2.22-10.5 0.03-5.84-0.38-7.62-2.47-10.75-1.61-2.4-4.4-4.65-7.76-6.24-4.37-2.07-6.67-2.48-13.75-2.42-4.67 0.04-9.15 0.3-9.95 0.57zm44-0.01c-1.21 0.43-1.41 3.69-1.25 19.43 0.17 15.81 0.45 19 1.7 19.42 0.83 0.28 7.73 0.5 15.34 0.5 7.6 0 14.12-0.34 14.49-0.75 0.36-0.41 0.1-1.33-0.59-2.04-0.88-0.93-4.63-1.29-12.99-1.25-11.37 0.04-11.77-0.03-12.3-2.21-0.31-1.24-0.42-4.5-0.25-7.25l0.3-5c18.48-0.4 21.3-0.82 22.25-1.98 1-1.22 1-1.62 0-2-0.69-0.27-5.97-0.61-11.75-0.75l-10.5-0.27c-0.48-6.2-0.37-9.01-0.06-10.25 0.54-2.16 1.04-2.26 12.81-2.5 10.11-0.21 12.25-0.51 12.25-1.75 0-1.25-2.3-1.53-14-1.68-7.7-0.11-14.65 0.04-15.45 0.33zm62.81 2.91c-1.26 1.95-2.1 3.92-1.86 4.37 0.24 0.45-0.59 3.01-1.85 5.69-1.26 2.69-2.93 6.34-3.72 8.13-0.79 1.79-2.04 4.71-2.8 6.5-0.75 1.79-1.97 4.6-2.72 6.25-0.74 1.65-1.47 3.34-1.63 3.75-0.15 0.41 1.07 0.75 2.72 0.75 1.75 0 2.99-0.52 2.98-1.25-0.01-0.69 1.04-3.27 2.33-5.75l2.35-4.5 17.34-0.5c5.32 10.75 6.96 12.93 7.75 12.57 0.69-0.32 1.7-0.57 2.25-0.57 0.55 0-0.61-3.71-2.58-8.25-1.97-4.54-4.15-9.6-4.86-11.25-0.71-1.65-2.35-5.7-3.64-9-1.3-3.3-2.94-7.01-3.64-8.25-0.77-1.36-2.23-2.25-3.7-2.25-1.67 0-3.12 1.1-4.72 3.56zm30.64-2.89c-0.46 0.36-0.76 9.14-0.66 19.5 0.1 11.58 0.55 18.93 1.16 19.08 0.55 0.14 1.56 0.25 2.25 0.25 0.85 0 1.41-2.43 1.75-7.5l0.5-7.5c7.83-0.47 10.99-0.04 12.28 0.7 1.26 0.71 3.61 3.33 5.23 5.8 1.62 2.48 3.75 5.56 4.72 6.85 1.29 1.72 2.38 2.19 4.02 1.75 2.19-0.58 2.13-0.77-2.21-6.85-2.46-3.44-4.48-6.92-4.5-7.75-0.02-0.82 1.31-2.4 2.95-3.5 1.65-1.1 3.45-3.35 4.02-5 0.56-1.65 1.02-4.01 1.01-5.25-0.01-1.24-0.58-3.43-1.27-4.87-0.69-1.45-2.94-3.47-5-4.5-2.97-1.49-5.98-1.88-14.58-1.88-5.96 0-11.21 0.3-11.67 0.67zm36.5 0.24c-1.25 0.73-1.12 1.07 0.75 1.99 1.24 0.6 3.94 1.11 6 1.12 2.06 0 4.43 0.44 5.25 0.96 1.2 0.75 1.6 4.29 2 17.73 0.42 14.04 0.75 16.79 2 16.79 1.26 0 1.58-2.75 2-16.79 0.4-13.44 0.8-16.97 2-17.73 0.83-0.52 3.53-0.94 6-0.92 2.88 0.02 4.95-0.53 5.75-1.52 1.02-1.25 0.97-1.63-0.25-2.04-0.82-0.27-7.91-0.49-15.75-0.48-7.84 0-14.92 0.41-15.75 0.89zm40.53-0.27c-0.48 0.38-0.79 9.17-0.69 19.53 0.13 15.75 0.41 18.91 1.66 19.33 0.83 0.28 7.73 0.5 15.34 0.5 7.6 0 14.12-0.34 14.49-0.75 0.36-0.41 0.1-1.33-0.59-2.04-0.88-0.93-4.63-1.29-12.99-1.25-11.37 0.04-11.77-0.03-12.3-2.21-0.31-1.24-0.42-4.5-0.25-7.25l0.3-5c18.48-0.4 21.3-0.82 22.25-1.98 1-1.22 1-1.62 0-2-0.69-0.27-5.97-0.61-11.75-0.75l-10.5-0.27c-0.48-6.2-0.37-9.01-0.06-10.25 0.54-2.16 1.04-2.26 12.81-2.5 10.11-0.21 12.25-0.51 12.25-1.75 0-1.25-2.4-1.55-14.56-1.78-8-0.15-14.94 0.04-15.41 0.42zm-874.53 140.68c-1.92 0.68-5.01 2.13-6.86 3.21-1.85 1.08-4.7 3.77-6.34 5.97-2.64 3.56-2.98 4.83-3.07 11.5-0.07 5.65 0.42 8.61 1.99 12 1.15 2.48 4.27 6.71 6.93 9.42 4.69 4.75 5.01 4.9 9.35 4.36 2.48-0.31 5.96-1.28 7.75-2.17 2.48-1.23 3.26-2.26 3.27-4.36 0.01-1.51-0.37-3.2-0.83-3.75-0.47-0.55-1.35-2.8-1.96-5-0.61-2.2-1.93-4.79-2.92-5.76-1.73-1.68-1.89-1.68-3.63 0-1.56 1.5-1.66 2.27-0.72 5.26 0.6 1.93 0.86 4.29 0.57 5.25-0.32 1.06-1.52 1.75-3.03 1.75-1.55 0-3.29-1.04-4.59-2.75-1.15-1.51-2.74-4.32-3.52-6.25-0.79-1.92-1.43-4.51-1.41-5.75 0.01-1.24 0.88-3.94 1.93-6 1.08-2.12 3.36-4.49 5.25-5.45 1.84-0.93 5.14-2.15 7.34-2.7 2.2-0.56 5.35-0.75 7-0.42 1.65 0.32 4.06 1.54 5.35 2.7 1.29 1.17 2.97 3.36 3.75 4.87 0.77 1.51 1.4 3.99 1.39 5.5-0.01 1.51-0.57 4.16-1.25 5.89-1.06 2.68-0.98 3.52 0.51 5.75 0.96 1.44 2.31 2.62 3 2.64 0.69 0.02 2.04-0.77 3.01-1.75 1.08-1.1 1.99-4.08 2.36-7.78 0.53-5.17 0.22-6.96-2.25-12.92-2.31-5.56-3.85-7.67-7.87-10.78-4.58-3.55-5.5-3.87-11-3.79-3.3 0.04-7.57 0.63-9.5 1.31zm1265 6.55c-1.37 0.35-3.76 1.53-5.31 2.63-1.55 1.1-3.51 3.8-4.36 6-0.98 2.52-1.31 5.29-0.91 7.5 0.35 1.93 1.75 5.19 3.11 7.25 1.46 2.22 4.41 4.72 7.22 6.11 2.61 1.3 7.9 3.38 11.75 4.61 4.53 1.46 8.06 2.03 10 1.61 1.65-0.36 4.78-1.87 6.95-3.36 3.01-2.08 4.4-4.02 5.87-8.22l1.92-5.5c-4.23-8.92-5.71-10.49-9.24-12.26-2.47-1.24-5.96-2.25-7.75-2.25-1.79 0.01-4.49 0.63-6 1.38-1.51 0.75-3.65 2.66-4.75 4.25-1.1 1.58-2.22 4.87-2.5 7.3-0.27 2.44-0.95 4.6-1.5 4.8-0.55 0.21-2.46-0.99-4.25-2.67-2.1-1.97-3.26-4.02-3.29-5.8-0.03-2.15 0.68-3.08 3.21-4.25 1.79-0.82 3.83-2.06 4.54-2.75 0.71-0.69 1.4-2.33 1.53-3.64 0.15-1.52-0.4-2.62-1.5-3-0.96-0.34-1.85-0.56-1.99-0.49-0.14 0.06-1.37 0.4-2.75 0.75zm-23.86 59.23c-2 0.55-4.54 2.44-6.27 4.66-1.61 2.06-3.39 5.54-3.96 7.74-0.57 2.2-0.72 5.35-0.34 7 0.39 1.65 1.32 4.01 2.07 5.25 0.75 1.24 2.17 2.25 3.16 2.25 0.99 0 2.35-0.56 3.02-1.25 0.67-0.69 1.21-2.71 1.2-4.5-0.01-1.79-0.47-3.47-1.02-3.75-0.55-0.27-1.01-1.51-1.03-2.75-0.02-1.24 0.77-3.03 1.75-3.97 0.98-0.95 2.91-1.73 4.28-1.72 1.38 0 3.24 0.55 4.15 1.22 0.9 0.67 2.59 3.58 3.75 6.47 1.16 2.89 2.1 6.15 2.1 7.25 0 1.1 1.35 4.93 3 8.5 1.67 3.61 4.22 7.35 5.75 8.41 1.94 1.35 3.27 1.65 4.5 1 0.96-0.5 3.59-4.85 5.83-9.66 2.25-4.81 4.75-10.1 5.57-11.75 0.81-1.65 1.34-3.89 1.17-4.98-0.18-1.1-1.11-2.11-2.07-2.25-0.96-0.15-2.48 0.29-3.38 0.98-0.89 0.69-3.14 4.29-5 8-1.85 3.71-3.59 6.75-3.87 6.75-0.27 0-1.33-1.46-2.35-3.25-1.01-1.79-2.2-5.27-2.63-7.75-0.44-2.47-1.56-6.3-2.5-8.5-0.93-2.2-3.12-5.24-4.86-6.75-1.74-1.51-3.83-2.75-4.66-2.75-0.82 0-2.06-0.18-2.75-0.41-0.69-0.22-2.76 0.01-4.61 0.51zm-1196.22 3.31c-0.23 0.22-4.24 0.63-8.92 0.91-4.67 0.28-13.45 1.04-19.5 1.69-6.05 0.66-12.01 1.6-13.25 2.09-1.59 0.64-2.06 1.41-1.6 2.65 0.36 0.96 1.37 2.57 2.25 3.56 1.33 1.5 2.54 1.71 7.1 1.19 3.89-0.44 5.91-0.24 6.89 0.69 0.76 0.72 2.45 3.67 3.75 6.56 1.3 2.89 2.36 5.93 2.36 6.75 0 0.83-1.56 3.19-3.46 5.25-2.15 2.33-3.48 4.79-3.5 6.5-0.02 1.51 0.19 3.43 0.46 4.25 0.28 0.83 1.06 1.51 1.75 1.52 0.69 0.02 8.68-7.41 17.75-16.49 9.08-9.09 16.61-17.2 16.75-18.03 0.14-0.82-0.87-3.3-2.25-5.5-1.44-2.3-3.28-4-4.33-4-1.01 0-2.02 0.18-2.25 0.41zm10.08 52.69c-7.97 4.88-15.96 9.55-17.75 10.38-2.08 0.97-3.25 2.24-3.25 3.52 0 1.1 1.91 5.17 4.25 9.05 2.34 3.87 4.71 7.81 5.27 8.75 0.56 0.93 2.25 3.61 3.75 5.95 2.05 3.18 3.3 4.19 4.98 4q2.25-0.25 2.5-2.5c0.14-1.24-1.21-4.77-3-7.84-1.79-3.07-4.04-6.9-5-8.5-0.96-1.6-1.52-3.7-1.25-4.66 0.27-0.96 4.21-3.9 8.75-6.53 4.54-2.63 9.13-5.33 10.19-6 1.07-0.67 4.33-2.68 7.25-4.47 2.92-1.79 5.3-3.81 5.28-4.5-0.02-0.69-0.92-2.26-2-3.5-1.08-1.24-2.76-2.2-3.72-2.13-0.96 0.06-8.27 4.11-16.25 8.98zm1157-1.98c-2.47 0.51-5.11 1.48-5.85 2.16-0.74 0.67-2.29 2.8-3.44 4.72-1.28 2.15-2.01 4.95-1.9 7.25 0.11 2.06 1.32 5.55 2.69 7.75 1.38 2.2 4.86 5.51 7.75 7.36 2.89 1.85 7.16 4.32 9.5 5.5 2.34 1.18 6.39 2.2 9 2.28 2.68 0.08 6.17-0.58 8-1.5 1.79-0.9 4.02-2.88 4.96-4.39 0.93-1.51 1.9-4.55 2.15-6.75 0.3-2.73-0.24-5.5-1.71-8.75-1.18-2.61-2.49-4.73-2.9-4.72-0.41 0.02-2.55-1.36-4.75-3.06-2.2-1.7-6.25-4.16-9-5.45-2.75-1.29-6.12-2.57-7.5-2.84-1.37-0.28-4.52-0.08-7 0.44zm-1119 47.9c-3.57 2.68-8.31 6.14-10.53 7.68-2.22 1.54-7.14 5.02-10.93 7.74-3.8 2.72-6.82 5.2-6.72 5.5 0.11 0.31 0.98 1.74 1.94 3.18 0.96 1.45 2.62 3.92 3.69 5.5 1.07 1.59 4.89 6.83 8.5 11.66 5.51 7.39 6.95 8.74 9.05 8.5 1.61-0.18 2.61-1 2.81-2.28 0.2-1.24-2.13-5.25-6.08-10.5-3.52-4.67-6.7-9.4-7.08-10.5-0.49-1.44 0.1-2.75 2.09-4.67 1.52-1.46 3.44-2.75 4.26-2.86 0.83-0.12 1.95-0.16 2.5-0.1 0.55 0.05 3.7 3.73 7 8.16 3.3 4.44 6.79 8.27 7.75 8.52 0.96 0.25 2.2 0.23 2.75-0.05 0.55-0.27 1.01-1.51 1.02-2.75 0.02-1.24-2.47-5.62-5.52-9.75-3.05-4.12-5.53-8.51-5.52-9.75 0.01-1.37 1.19-3.03 3.02-4.25 1.65-1.1 3.68-2 4.5-2 0.83 0 4 3.49 7.05 7.75 3.05 4.26 6.2 8.54 7 9.5 0.8 0.96 2.13 1.75 2.95 1.75 0.83 0 1.95-0.9 2.5-2 0.69-1.38 0.64-2.7-0.15-4.25-0.63-1.24-3.97-6.07-7.43-10.75-3.45-4.67-7.21-9.74-8.35-11.25-1.14-1.51-2.86-2.72-3.82-2.68-0.96 0.04-4.67 2.27-8.25 4.95zm1082.96 4.71c-1.39 0.85-3.85 3.39-5.45 5.66-1.79 2.53-3.09 5.84-3.38 8.61-0.34 3.14 0.03 5.33 1.2 7.25 0.92 1.51 2.23 2.76 2.92 2.78 0.69 0.02 2.03-0.77 2.98-1.75 1.27-1.3 1.67-3.16 1.5-6.88q-0.23-5.1 1.27-6.79c0.83-0.94 2.29-1.68 3.25-1.65 0.96 0.02 2.65 0.49 3.75 1.04 1.1 0.55 2.48 2.24 3.07 3.75 0.58 1.51 1.71 7.81 2.5 14 1.05 8.23 2.02 12.12 3.63 14.5 1.21 1.79 2.68 3.58 3.25 3.98 0.58 0.41 1.39 0.75 1.8 0.75 0.41 0.01 2.58-2.34 4.81-5.23 2.24-2.89 4.6-5.93 5.25-6.76 0.66-0.83 2.99-4.14 5.19-7.34 3.91-5.71 3.96-5.87 2-7.26-1.1-0.78-2.56-1.42-3.25-1.41-0.69 0.01-2.43 1.48-3.86 3.27-1.44 1.79-3.35 4.5-4.25 6.02-0.9 1.53-2.54 3.03-3.64 3.34-1.17 0.33-2.27 0.01-2.66-0.77-0.36-0.74-0.87-4.94-1.14-9.34-0.28-4.62-1.29-9.9-2.4-12.5-1.05-2.47-3.35-5.51-5.11-6.75-2.03-1.44-4.54-2.22-6.94-2.16-2.06 0.05-4.89 0.79-6.29 1.64zm-1039.27 41.09c-1.36 0.92-8.03 6.63-14.81 12.68-6.78 6.05-13.35 12.01-14.6 13.25l-2.28 2.25c3.1 4.65 4.68 6 5.5 6 0.83 0 3.64-1.82 6.25-4.03 2.61-2.22 5.31-4.02 6-4 0.69 0.01 2.6 1.16 4.25 2.53q3.01 2.5 2.99 5.25c-0.01 1.51-0.43 4.1-0.93 5.75-0.51 1.65-1.45 4.8-2.1 7-0.97 3.28-0.92 4.54 0.29 7 0.82 1.65 2.44 3.34 3.62 3.75 1.17 0.41 2.31 0.41 2.53 0 0.22-0.41 1.17-3.9 2.12-7.75 0.95-3.85 2.12-7.79 2.61-8.75 0.49-0.99 1.41-1.46 2.12-1.07 0.69 0.37 3.28 0.58 5.75 0.46 2.48-0.12 5.85-1.07 7.5-2.1 1.65-1.03 3.96-3.6 5.14-5.71 1.98-3.55 2.04-4.2 0.81-8.83-0.73-2.75-2.15-5.98-3.14-7.18-0.99-1.19-4.28-5.05-7.31-8.57-3.02-3.51-6.47-7.11-7.66-8-2-1.48-2.36-1.48-4.65 0.07zm60.99 48.93c-0.24 0.41-0.15 1.59 0.2 2.63 0.44 1.31 1.81 1.98 4.62 2.25 2.2 0.21 5.01 0.6 6.25 0.88 1.46 0.32 2.52-0.08 3-1.12 0.52-1.11-0.02-2.19-1.75-3.48-1.59-1.19-4.2-1.87-7.2-1.89-2.58-0.01-4.89 0.32-5.12 0.73zm-17.33 17.98c-6.52 7-13.2 14.14-14.85 15.87-1.65 1.73-2.83 3.77-2.62 4.53 0.21 0.75 1.11 2.17 2 3.15 0.89 0.98 2.52 1.73 3.62 1.65 1.11-0.07 4.87-3.31 8.43-7.28 3.54-3.93 9.64-10.52 13.55-14.65 3.91-4.12 7.43-8.4 7.82-9.5 0.5-1.44 0-2.63-1.8-4.25-1.37-1.24-2.91-2.25-3.4-2.25-0.5 0-6.24 5.73-12.75 12.73zm931.23 17.35c-1.1 0.58-1.86 1.96-1.77 3.22 0.08 1.21 1.16 3.24 2.42 4.52 2.01 2.06 2.53 2.17 4.56 1 1.26-0.73 2.49-2.35 2.73-3.61 0.26-1.31-0.29-3.15-1.28-4.28-0.96-1.1-2.41-1.97-3.24-1.93-0.82 0.03-2.36 0.52-3.42 1.08zm-68.58 10.58c-7.42 5.8-13.83 11.06-14.23 11.69-0.41 0.63-0.74 1.71-0.75 2.4-0.01 0.69 0.88 1.7 1.98 2.25 1.59 0.8 2.87 0.39 6.25-1.98 2.34-1.64 5.15-3.01 6.25-3.03 1.42-0.04 5.12 4.02 12.75 13.98 6.47 8.44 11.45 14.04 12.5 14.06 0.96 0.02 2.53-0.77 3.48-1.75 0.95-0.98 1.72-2.68 1.71-3.78 0-1.1-2.55-5.15-5.66-9-3.11-3.85-7.3-9.02-9.3-11.5-2.01-2.47-4.18-5.51-4.82-6.75-0.64-1.24-1.16-2.47-1.16-2.75 0-0.27 2.05-2.41 4.55-4.75 4.19-3.91 4.47-4.47 3.5-7-0.58-1.51-1.61-2.72-2.3-2.69-0.69 0.03-7.32 4.8-14.75 10.6zm-806.16-0.77c-0.79 0.34-4.56 2.73-8.39 5.32-3.82 2.6-7.29 4.73-7.7 4.75-0.41 0.02-4.46 2.5-9 5.51-4.54 3-9.51 6.49-11.06 7.75l-2.8 2.28c3.57 3.53 5.62 4.54 6.86 4.53 1.24-0.02 3.6-1.15 5.25-2.53 1.65-1.37 4.01-2.48 5.25-2.46 1.24 0.02 4.45 1.71 7.14 3.75 2.69 2.04 5.23 4.39 5.65 5.21 0.43 0.83 0.15 3.3-0.62 5.5-0.76 2.2-1.41 5.13-1.43 6.5-0.03 1.56 0.81 3.01 2.23 3.87 1.26 0.76 3.07 1.1 4.03 0.75 0.96-0.34 2.03-1.86 2.38-3.37 0.34-1.51 3.03-10.17 5.97-19.25 2.95-9.07 5.62-17.85 5.95-19.5 0.48-2.44 0.07-3.49-2.23-5.6-1.55-1.44-3.55-2.84-4.44-3.11-0.89-0.28-2.26-0.24-3.04 0.1zm756.66 35.38c-2.2 1.11-5.51 3.2-7.35 4.63-1.85 1.43-4.2 3.95-5.22 5.6-1.04 1.66-1.88 4.89-1.9 7.25-0.02 3.36 0.55 4.8 2.72 6.86 1.51 1.44 3.88 3.04 5.25 3.56 1.38 0.52 4.3 0.64 6.5 0.27 2.2-0.38 6.14-1.53 8.75-2.56 2.61-1.03 6.1-1.88 7.75-1.88 1.65 0 3.68 0.23 4.5 0.5 0.94 0.31 1.49 1.72 1.46 3.75-0.03 2.33-0.95 4.11-3.25 6.28-1.76 1.67-4.56 3.33-6.21 3.7-1.65 0.37-4.57 0.41-6.5 0.08-2.74-0.47-3.99-0.13-5.75 1.55-1.24 1.18-2.1 2.7-1.92 3.39 0.17 0.69 1.64 1.87 3.25 2.63 1.97 0.92 4.55 1.16 7.92 0.72 3.31-0.42 7.04-1.95 11-4.49 3.3-2.12 6.93-5.37 8.07-7.23 1.14-1.86 2.34-4.5 2.66-5.88 0.33-1.37 0.18-3.96-0.32-5.75-0.5-1.79-2.26-4.37-3.91-5.75-2.4-2-4.1-2.5-8.5-2.5-3.02 0-6.85 0.68-8.5 1.5-1.65 0.83-4.69 1.78-6.75 2.13-2.06 0.34-4.99 0.34-6.5 0-2.1-0.48-2.75-1.22-2.75-3.13 0-1.37 1.13-3.62 2.5-5 1.38-1.37 3.51-2.76 4.75-3.08 1.24-0.32 3.83-0.14 5.75 0.41 3.06 0.86 3.85 0.69 6.25-1.42 2.24-1.96 2.57-2.78 1.75-4.41-0.55-1.1-1.56-2.19-2.25-2.42-0.69-0.23-3.05-0.62-5.25-0.87-2.77-0.32-5.24 0.16-8 1.56zm-665.85 25.98c-0.77 1.24-5.29 9.9-10.05 19.25-4.76 9.35-8.66 17.45-8.66 18 0 0.55 4.52 3.36 10.03 6.25 8.68 4.54 10.81 5.25 15.78 5.27 3.38 0.01 7.19-0.67 9.25-1.66 1.93-0.93 5-3.3 6.84-5.27 1.83-1.98 4.14-5.39 5.13-7.59 0.99-2.2 2.12-5.8 2.52-8 0.51-2.84 0.21-5.3-1.02-8.5-0.96-2.47-3.37-6.1-5.35-8.06-1.99-1.95-7.44-5.45-12.12-7.78-4.67-2.32-9.05-4.21-9.73-4.19-0.68 0.02-1.86 1.04-2.62 2.28zm610.24 5.06c-6.39 3.41-12.64 6.87-13.88 7.69l-2.27 1.5c17.24 34.01 20.27 39.08 21.76 39.32 1.1 0.17 7.63-2.48 14.5-5.9 6.88-3.41 13.74-7.04 15.25-8.06 1.97-1.33 2.54-2.33 2-3.52-0.41-0.91-1.65-1.99-2.75-2.4-1.43-0.53-4.61 0.64-11.25 4.16-5.09 2.69-10.37 4.9-11.75 4.9-1.81 0-3.05-0.97-4.5-3.5-1.1-1.92-1.98-4.06-1.96-4.75 0.02-0.69 0.81-1.83 1.75-2.54 0.94-0.7 4.86-2.79 8.71-4.63 3.85-1.84 7.56-4.08 8.25-4.97 0.69-0.88 1.03-2.51 0.75-3.61-0.29-1.17-1.33-2-2.5-2-1.1 0-5.94 2.02-10.75 4.5-8.14 4.18-8.9 4.39-11 3-1.24-0.83-2.52-2.51-2.84-3.75-0.33-1.24-0.35-3.15-0.05-4.25 0.36-1.32 3.97-3.7 10.64-7 9.11-4.51 10.07-5.24 9.8-7.5-0.24-1.99-0.91-2.54-3.3-2.69-2.01-0.12-6.82 1.85-14.61 6zm-542.65 25.94c-0.55 0.69-1.34 2.38-1.76 3.75-0.42 1.38-3.84 10.15-7.6 19.5l-6.84 17c3.46 2.72 5.53 3.39 6.83 3.25 1.99-0.21 2.97-1.76 6.16-9.75 2.08-5.22 5.63-14.22 7.87-20 3.76-9.68 3.97-10.68 2.59-12.75-0.85-1.29-2.51-2.25-3.88-2.25-1.31 0-2.83 0.56-3.37 1.25zm48.76 18.75c-1.92 0.5-5.18 2.62-7.24 4.71-2.23 2.26-4.54 6.11-5.75 9.54-1.1 3.16-2.01 8-2.01 10.75 0 2.75 0.62 6.46 1.38 8.25 0.76 1.79 2.67 4.46 4.25 5.95 1.58 1.48 5.12 3.73 7.87 4.99 4 1.84 6.74 2.31 13.67 2.31 7.89 0 8.91-0.23 11.28-2.5 1.43-1.37 2.59-3.29 2.58-4.25-0.02-0.96 0.65-3.1 1.47-4.75 1.09-2.17 1.22-3.56 0.5-5-0.6-1.19-2.71-2.41-5.25-3.02-2.34-0.55-5.82-1.52-7.75-2.13-1.92-0.62-4.06-0.84-4.75-0.49-0.69 0.35-1.27 1.65-1.29 2.89-0.03 1.75 1.07 2.75 5 4.5 4.82 2.15 4.98 2.35 3.68 4.5-1.1 1.81-2.42 2.31-6.75 2.54-2.97 0.16-6.7-0.29-8.3-1-1.6-0.71-3.96-2.53-5.25-4.04-1.87-2.2-2.33-3.9-2.32-8.5 0.02-3.32 0.78-7.44 1.82-9.75 0.99-2.21 3.32-4.99 5.22-6.22 1.89-1.22 4.9-2.23 6.69-2.25 1.79-0.02 4.6 0.65 6.25 1.47 1.65 0.83 4.35 3.08 6 5 1.65 1.93 3.79 3.51 4.75 3.52 0.96 0.01 2.56-0.56 3.56-1.25 1.49-1.05 1.62-1.74 0.75-4.02-0.58-1.51-2.3-3.92-3.81-5.34-1.51-1.43-4.77-3.48-7.25-4.56-2.47-1.08-6.97-2.14-10-2.36-3.02-0.22-7.07 0.01-9 0.51zm71.15 14.75c-0.51 0.96-1.23 4.23-1.62 7.25-0.38 3.03-1.29 7.98-2.02 11-0.72 3.03-1.61 7.75-1.97 10.5-0.35 2.75-1.07 6.46-1.59 8.25-0.52 1.79-0.72 4.15-0.45 5.25 0.42 1.66 1.22 1.96 4.66 1.75l4.17-0.25c2.73-13.95 4.45-22.84 5.6-28.75 1.14-5.91 2.07-11.87 2.07-13.25 0-1.78-0.64-2.64-2.25-2.99-1.24-0.26-3.02-0.49-3.97-0.5-0.95 0-2.13 0.78-2.63 1.74zm315.22 4.96c-1.17 0.25-2.75 1.51-3.5 2.81-1.19 2.06-1.14 2.69 0.38 4.92 0.96 1.41 2.31 2.55 3 2.55 0.69-0.01 2.26-0.24 3.5-0.5 1.81-0.4 2.25-1.17 2.25-3.99 0-1.92-0.67-4.17-1.5-5-0.82-0.82-1.61-1.44-1.75-1.36-0.14 0.07-1.21 0.33-2.38 0.57zm-266.79 3.41c-0.45 0.76-0.54 2.39-0.2 3.63 0.51 1.86 1.32 2.25 4.62 2.25 2.2 0 5.13 0.45 6.5 1 2.04 0.82 2.5 1.69 2.51 4.75 0.01 2.06-0.78 10.36-1.75 18.43-0.97 8.08-1.53 14.92-1.26 15.2 0.28 0.27 2.53 0.64 5 0.81l4.5 0.31c0.39-6.97 1.21-15.07 2.08-22.5 1.2-10.14 2-13.8 3.26-14.71 1.05-0.76 3.5-1 6.66-0.66 4.49 0.5 5.14 0.31 6.36-1.79 1.23-2.12 1.13-2.5-1-3.98-1.68-1.17-5.53-1.81-13.36-2.22-6.05-0.32-13.72-0.88-17.05-1.24-4.63-0.5-6.25-0.33-6.87 0.72zm124.28 2.51c-1.15 1.38-1.14 3.68 0.02 14.75 0.76 7.22 1.56 16.5 1.77 20.62 0.22 4.14 0.95 8.01 1.62 8.64 0.91 0.84 4.79 0.88 14.73 0.16 7.43-0.55 14.51-1.4 15.75-1.89 1.24-0.5 2.59-1.61 3-2.46 0.45-0.92 0.15-2.17-0.75-3.09-1.3-1.34-2.74-1.39-11-0.4-5.22 0.63-10.17 0.91-11 0.62-0.82-0.29-1.83-1.55-2.24-2.81-0.41-1.25-1.24-8.79-1.84-16.77-0.6-7.97-1.5-15.51-2-16.75-0.65-1.6-1.75-2.25-3.81-2.25-1.58 0-3.5 0.74-4.25 1.63zm-46.52 1.23c-1.36 0.42-2.95 2.51-4.28 5.65-1.16 2.75-3.26 8.37-4.65 12.49-1.39 4.13-2.94 8.4-3.44 9.5-0.5 1.1-1.63 4.03-2.5 6.5-0.87 2.48-1.99 5.85-2.48 7.5-0.5 1.65-0.7 3.34-0.45 3.75 0.26 0.41 1.81 0.75 3.46 0.75 1.65 0 3.68-0.22 4.5-0.5 0.83-0.27 1.79-2.19 2.13-4.25 0.35-2.06 1.03-4.54 1.5-5.5 0.73-1.47 2.29-1.75 9.62-1.75h8.75c3.99 11.1 4.37 11.52 7.57 11.8 1.89 0.16 3.99 0.05 4.68-0.25 0.94-0.41 0.61-2.24-1.32-7.3-1.41-3.71-2.98-8.1-3.48-9.75-0.51-1.65-1.35-3.9-1.87-5-0.53-1.1-2.16-5.6-3.63-10-1.46-4.4-3.23-9.12-3.92-10.5-0.68-1.37-1.98-2.84-2.89-3.25-0.9-0.41-2.43-0.7-3.39-0.65-0.96 0.05-2.72 0.4-3.91 0.76z"/>
		<path id="Path 5" class="s1" d="m728.45 109.6c-1.68 0.8-3.93 2.69-5 4.18-1.53 2.13-1.95 4.38-1.95 10.39 0 6.79 0.28 7.97 2.5 10.34 1.37 1.47 3.74 3.31 5.25 4.09 1.51 0.77 4.1 1.4 5.75 1.4 1.65 0 4.39-0.79 6.1-1.75 1.7-0.96 3.95-3.44 5-5.5 1.04-2.06 1.9-5.77 1.9-8.25 0-2.5-0.89-6.28-2-8.5q-2-4-6-6c-2.2-1.1-5.01-1.97-6.25-1.94-1.24 0.04-3.62 0.73-5.3 1.54zm-123.1 27.02c-0.63 1.03-1.3 4.58-1.5 7.88l-0.35 6c4.65 0.49 7.01 0.38 8.25 0.07 1.71-0.43 2.25-1.29 2.25-3.57 0-1.65-0.34-2.98-0.75-2.95-0.41 0.02-2.1-2.06-3.75-4.64-2.74-4.26-3.1-4.51-4.15-2.79zm496.9 42.15c-0.96 0.98-2.61 3.34-3.65 5.25-1.07 1.95-1.62 4.25-1.25 5.23 0.36 0.96 3.01 2.87 5.9 4.23 2.89 1.36 6.37 2.51 7.75 2.54 1.37 0.04 3.57-0.74 4.88-1.73 1.56-1.17 2.43-2.88 2.5-4.94 0.07-1.87-0.69-4.03-1.88-5.35-1.1-1.22-4.14-3.29-6.75-4.61-2.61-1.31-4.97-2.39-5.25-2.39-0.28 0-1.29 0.8-2.25 1.77zm55 40.25c-4.97 3.77-5.18 4.1-3.84 6.23 0.77 1.24 2.81 2.92 4.53 3.75q3.12 1.5 4.13 0.5c0.55-0.55 1.44-3.25 1.98-6 0.54-2.75 1.2-5.79 1.46-6.75 0.33-1.19-0.07-1.74-1.26-1.73-0.96 0.01-4.11 1.81-7 4zm52.04 29.55c-1.54 1.96-5.31 6.8-8.4 10.75-3.7 4.73-5.46 7.86-5.19 9.18 0.23 1.1 2.08 3.11 4.11 4.47 2.14 1.44 5.58 2.63 8.19 2.84 3.78 0.31 5.18-0.13 8.75-2.72 2.34-1.7 5.15-4.89 6.25-7.09 1.1-2.2 2-5.35 2-7 0-1.65-0.39-4.01-0.87-5.25-0.49-1.24-2.4-3.72-4.25-5.52-1.86-1.8-4.38-3.26-5.59-3.25-1.34 0.01-3.32 1.44-5 3.59zm42.71 39.81c-1.93 1.31-4.44 3.68-5.59 5.25-1.15 1.58-2.62 4.56-3.25 6.62-0.99 3.21-0.87 4.4 0.84 8.25q2 4.5 5.25 6.13c2.34 1.17 4.58 1.45 8 1 2.61-0.35 5.82-1.42 7.12-2.38 1.31-0.96 3.43-3.1 4.71-4.75 1.51-1.94 2.49-4.77 2.75-8 0.29-3.38-0.1-5.97-1.2-8-0.89-1.65-3.19-3.79-5.12-4.75-1.93-0.96-4.97-1.75-6.76-1.75-1.79-0.01-4.82 1.06-6.75 2.38zm-1077.31 205.37c-0.89 0.96-2.53 3.55-3.66 5.75-1.13 2.2-2.04 5.24-2.04 6.75 0.01 2.2 0.8 3.15 4.01 4.75 2.2 1.1 5.01 2.02 6.25 2.04 1.8 0.03 2.82-1.21 5.11-6.25 2.11-4.63 2.7-7.15 2.25-9.54-0.34-1.81-1.5-3.69-2.61-4.25-1.1-0.55-3.28-1-4.85-1-1.57 0-3.58 0.79-4.46 1.75zm-23.1 67.21c-0.32 0.57 1.32 3.05 3.66 5.5 2.51 2.63 5.17 4.48 6.5 4.5 1.28 0.02 2.68-0.82 3.25-1.96 0.55-1.1 0.89-3.46 0.75-5.25l-0.25-3.25c-10.55-0.47-13.56-0.15-13.91 0.46zm261.41 113.71c-0.83 0.28-2.96 1.14-4.75 1.92-1.79 0.78-4.04 2.2-5.01 3.16-0.97 0.96-2.75 3.33-3.96 5.25-1.21 1.92-2.84 5.98-3.62 9-0.78 3.03-1.69 7.41-2.04 9.75-0.45 3.1-0.21 4.66 0.88 5.75 1.23 1.23 4.94 1.5 20.5 1.5 10.94 0 20.17-0.45 21.75-1.06l2.75-1.05c-1.27-11.15-2.08-16.19-2.63-18.39-0.55-2.2-2.22-5.8-3.7-8-1.56-2.31-4.6-4.96-7.18-6.26-2.47-1.24-6.07-2.22-7.99-2.17-1.93 0.05-4.18 0.32-5 0.6zm293.15 1.48c-2.79 1.27-5.48 3.61-7.5 6.52-1.73 2.5-3.93 7.08-4.89 10.18-0.95 3.11-1.74 8.24-1.75 11.4-0.01 4.23 0.39 5.88 1.49 6.25 0.82 0.28 9.49 0.5 19.25 0.49 9.76-0.01 19.45-0.34 21.52-0.75 3.36-0.66 3.76-1.06 3.74-3.74-0.02-1.65-0.74-6.83-1.6-11.5-1.05-5.68-2.47-9.83-4.29-12.5-1.5-2.2-4.5-5.01-6.67-6.23-2.83-1.6-5.51-2.22-9.45-2.17-3.22 0.04-7.3 0.89-9.85 2.05zm107.35-0.17c-2.2 1.06-5.51 3.41-7.36 5.22-1.84 1.82-4.05 4.65-4.89 6.3-0.85 1.65-2.43 5.47-3.51 8.5-1.5 4.22-2.07 9.1-2.46 21-0.28 8.88-0.06 17.63 0.53 20.5 0.57 2.75 1.65 6.58 2.41 8.5 0.76 1.92 2.33 5.08 3.49 7 1.16 1.92 3.38 4.39 4.95 5.48 1.56 1.09 4.64 2.79 6.84 3.78 2.97 1.33 6.45 1.79 13.5 1.76 5.22-0.02 11.3-0.52 13.5-1.12 2.2-0.61 4.8-1.84 5.78-2.75 1.65-1.53 1.79-4.55 1.8-41.15 0-37.67-0.09-39.62-1.95-42-1.89-2.42-2.37-2.51-15.29-2.72-11.39-0.19-13.92 0.06-17.34 1.7zm362.5 0.75q-5.5 2.77-8.09 6.77c-1.43 2.2-3.32 6.25-4.2 9-0.89 2.75-1.91 7.47-2.28 10.5-0.5 4.07-0.32 5.83 0.7 6.77 1.03 0.95 6.45 1.2 22.07 1 12.1-0.16 21.11-0.69 21.69-1.27 0.65-0.66 0.56-4.41-0.27-11-0.9-7.08-1.97-11.17-3.66-14-1.31-2.2-2.85-4.49-3.42-5.1-0.57-0.6-2.84-2.06-5.04-3.25-2.2-1.19-5.8-2.16-8-2.17-2.4-0.01-6.2 1.1-9.5 2.75zm-245 45.23c-2.47 0.39-6.41 1.23-8.75 1.87-2.37 0.65-5.26 2.38-6.54 3.92-1.27 1.51-2.94 4.55-3.72 6.75-0.79 2.2-1.42 6.92-1.41 10.5 0.01 5.02 0.57 7.5 2.47 10.9 1.43 2.57 3.91 5.17 5.95 6.25 2.06 1.1 5.55 1.86 8.5 1.85 2.75 0 8.15-0.91 12-2.02 3.85-1.11 8.02-3.03 9.28-4.25 2.16-2.12 2.27-2.94 2.25-16.98-0.02-8.11-0.48-15.87-1.03-17.25-0.94-2.34-1.43-2.49-7.75-2.37-3.71 0.08-8.78 0.45-11.25 0.83zm-225.06 148.97c-0.62 1.07-1.08 4.44-1.03 7.5 0.05 3.32 0.6 5.86 1.34 6.29 0.69 0.4 4.85 0.64 9.25 0.53 6.84-0.17 8.33-0.52 10.29-2.47 1.25-1.25 2.5-2.95 2.77-3.78 0.27-0.83 0.03-2.74-0.53-4.25-0.57-1.51-2.38-3.42-4.03-4.25-1.81-0.9-5.77-1.5-9.97-1.5-5.84 0-7.15 0.31-8.09 1.93zm114 0c-0.67 1.16-1.08 6.77-1.03 14 0.05 6.64 0.54 12.97 1.09 14.07 0.81 1.62 1.99 2 6.25 1.98 3.09-0.01 7-0.84 9.5-2 2.34-1.09 5.04-3.2 6-4.69 1.26-1.94 1.75-4.75 1.75-9.93 0-6.45-0.28-7.53-2.66-10.04-1.47-1.55-4.39-3.38-6.5-4.05-2.11-0.68-5.96-1.24-8.56-1.25-3.63-0.02-4.98 0.43-5.84 1.91zm137.43-0.57c-0.31 0.74-0.42 4.2-0.22 7.68 0.34 6.06 0.47 6.36 3.35 7.14 1.65 0.45 5.7 0.51 9 0.12 4.31-0.51 6.63-1.36 8.25-3 1.24-1.27 2.24-3.53 2.23-5.05 0-1.51-0.34-3.23-0.75-3.81-0.4-0.58-1.86-1.82-3.23-2.76-1.83-1.24-4.6-1.69-10.27-1.69-5.59 0.01-7.94 0.39-8.36 1.37zm-358.37 3.84c-0.77 0.66-1.31 1.79-1.2 2.5 0.11 0.71-0.81 3.16-2.05 5.43-2.24 4.11-2.24 4.14-0.25 5.52 1.1 0.76 3.35 1.37 5 1.35 1.65-0.01 4.01-0.25 5.25-0.51 1.42-0.31 2.25-1.23 2.25-2.49 0-1.1-0.62-3.24-1.39-4.75-0.76-1.51-1.89-3.99-2.5-5.5-0.61-1.51-1.7-2.75-2.41-2.75-0.71 0-1.93 0.54-2.7 1.2zm173.9 1.55c-0.59 1.51-1.71 3.99-2.48 5.5-0.78 1.51-1.42 3.65-1.42 4.75 0 1.1 0.67 2.22 1.5 2.5 0.82 0.28 3.07 0.5 5 0.5 1.92 0 4.4-0.45 5.5-1 1.91-0.96 1.93-1.16 0.4-4.75-0.89-2.06-2.01-5.21-2.5-7-0.64-2.3-1.49-3.25-2.92-3.25-1.27 0-2.41 1.01-3.08 2.75zm151.1-1.55c-0.77 0.66-1.41 1.74-1.43 2.39-0.02 0.66-0.81 3.15-1.77 5.55-1.65 4.12-1.65 4.43-0.02 5.63 0.95 0.69 3.41 1.26 5.47 1.25 2.06-0.01 4.43-0.24 5.25-0.52 0.82-0.28 1.5-1.4 1.5-2.5 0-1.1-0.62-3.24-1.39-4.75-0.76-1.51-1.89-3.99-2.5-5.5-0.61-1.51-1.7-2.75-2.41-2.75-0.71 0-1.93 0.54-2.7 1.2zm511.53 153.07c-1.08 0.66-2.31 1.66-2.73 2.22-0.42 0.56-0.78 2.02-0.78 3.26-0.01 1.24 0.88 3.15 1.98 4.25 1.41 1.41 3.33 2 6.5 2 3.73 0 4.76-0.43 6-2.5 1.33-2.22 1.33-2.83 0-5.5-0.82-1.65-2.4-3.45-3.5-4-1.1-0.55-2.79-0.99-3.75-0.97-0.96 0.02-2.64 0.57-3.72 1.24zm-1249.03 57.46c-1.65 0.23-3.38 0.73-3.84 1.1-0.46 0.37-0.57 2.36-0.25 4.42 0.4 2.56 1.31 4.09 2.84 4.8 1.97 0.93 2.85 0.49 7-3.5 2.86-2.74 4.55-5.15 4.25-6.05-0.32-0.97-1.65-1.45-3.75-1.35-1.79 0.08-4.6 0.34-6.25 0.58zm1180.82 49.01c-1 0.14-2.32 1.28-2.93 2.51-0.62 1.24-0.8 3.15-0.41 4.25 0.39 1.1 2.47 3.48 4.62 5.3 2.14 1.81 6.6 4.61 9.9 6.22 3.3 1.6 6.9 2.95 8 2.99 1.1 0.04 3.04-0.73 4.31-1.72 2.01-1.55 2.18-2.16 1.25-4.54-0.58-1.51-2.49-3.99-4.23-5.5-1.75-1.51-4.56-3.59-6.25-4.62-1.7-1.04-5.19-2.62-7.76-3.52-2.57-0.9-5.5-1.52-6.5-1.37zm-1077.7 100.33c-3.7 3.15-4.5 4.38-4.01 6.18 0.33 1.24 2.47 4.17 4.75 6.51 3.43 3.54 4.78 4.27 7.89 4.25 2.4 0 4.47-0.73 5.75-2.01 1.1-1.1 2.02-3.24 2.03-4.75 0.03-1.84-1.37-4.36-4.25-7.63-2.35-2.68-5.01-5.24-5.91-5.68-1.16-0.58-2.94 0.32-6.25 3.13zm96.88 92.65c-1.65 0.9-3.45 2.02-4 2.49-0.55 0.47-1.9 1.46-3 2.19-1.94 1.29-1.88 1.45 1.81 5.22 2.95 3.01 4.15 3.66 5.36 2.88 0.86-0.55 2.63-4.04 3.94-7.75 2.19-6.18 2.24-6.75 0.64-6.71-0.96 0.02-3.1 0.78-4.75 1.68zm101.77 58.53c-0.52 0.69-3.5 6.31-6.61 12.5-5.37 10.67-5.58 11.38-4.16 13.75 0.96 1.6 3.02 2.89 5.75 3.58 2.34 0.6 5.71 0.83 7.5 0.5 1.79-0.32 4.66-1.82 6.39-3.33 1.72-1.51 3.97-4.44 5-6.5 1.02-2.06 1.87-5.44 1.88-7.5 0.01-2.48-0.86-4.94-2.57-7.25-1.41-1.92-3.78-4.28-5.26-5.24-1.48-0.96-3.65-1.75-4.83-1.75-1.17-0.01-2.56 0.55-3.09 1.24zm310.25 79.47c-1 1.53-2.4 4.81-3.12 7.28-0.71 2.47-1.09 4.84-0.85 5.25 0.25 0.41 2.7 0.75 5.45 0.75 4.53 0 5-0.21 4.97-2.25-0.02-1.24-0.81-4.56-1.75-7.38-0.95-2.83-1.98-5.43-2.29-5.78-0.32-0.36-1.4 0.6-2.41 2.13z"/>
		<path id="Path 6" class="s2" d="m629.22 884.75l-0.22 19.25 21.5-0.42c-14.65-0.44-18.45-1.01-19.2-1.81-0.82-0.86-1.31-6.91-1.53-18.77l-0.32-17.5zm33.77 0.25v19l27.5-0.41-26-1.09v-18l23-1.07-23-0.93v-15l25-1.09-26.5-0.41zm40.19 0.25c0.13 13.8 0.35 16.84 0.75 10.75l0.56-8.5c11.63 0 16.02 0.34 17.25 0.75 1.6 0.53 2.4 0.32 2.75-0.75 0.43-1.27-1.11-1.5-10-1.5h-10.5l0.5-18.5 17-1.13-18.5-0.37zm113.82-0.25v19l14.5-0.35-13-1.15v-35l13-1.15-14.5-0.35zm43.55-17.71c-0.23 0.7-0.33 9.14-0.23 18.75l0.18 17.46 28 0.1c-22.96-0.59-25.21-0.92-26.27-2.37-0.71-0.97-1.26-4.49-1.25-7.98 0.01-3.44 0.24-6.92 0.52-7.75 0.4-1.2 2.83-1.54 12.25-1.71l11.75-0.22c-19.06-0.55-23.25-1.08-23.74-1.87-0.4-0.66-0.75-3.45-0.76-6.2-0.02-2.75 0.53-5.78 1.23-6.73 1.05-1.43 3.26-1.78 12.77-2.03l11.5-0.31c-22.46-0.38-25.65-0.12-25.95 0.86zm93.64 17.46c0.11 10.31 0.37 15.6 0.57 11.75 0.2-3.85 0.9-7.58 1.55-8.29 0.74-0.81 3.55-1.28 7.44-1.25 3.44 0.02 7.26 0.53 8.5 1.14 1.74 0.85 2.41 0.79 2.97-0.25 0.57-1.08-1.34-1.45-9.5-1.85l-10.22-0.5c-0.46-10.85-0.35-15.01-0.05-16.25 0.51-2.09 1.17-2.27 9.3-2.54l8.75-0.3-19.5-0.41zm42.55-18.06c5.98 0.3 6.31 0.45 7.66 3.56l1.42 3.25c0.66-5.92 0.84-6.02 7.17-6.58 4.17-0.37 1.3-0.57-8-0.55-7.97 0.01-11.68 0.15-8.25 0.32zm34.48 18.06l0.27 18.75 28 0.1c-20.36-0.57-25.48-1.15-26.29-1.9-0.83-0.76-1.28-3.66-1.25-7.95 0.02-3.71 0.27-7.42 0.54-8.25 0.4-1.2 2.82-1.54 12.25-1.7l11.75-0.2-24-1.1c-0.59-11.86-0.33-13.21 1.15-14.22 1.05-0.71 6.35-1.34 12.82-1.53l11.03-0.32-26.54-0.43z"/>
		<path id="Path 7" class="s0" d="m405.89 676.44c-1.98 1.28-4.73 3.84-6.1 5.69-1.38 1.85-2.82 4.49-3.22 5.87-0.43 1.53 0.37 0.75 2.08-2 1.54-2.48 3.6-5.29 4.57-6.25 0.98-0.96 3.24-2.38 5.03-3.16 1.79-0.78 3.92-1.64 4.75-1.92 0.83-0.28 0.38-0.52-1-0.53-1.37-0.01-4.12 1.02-6.11 2.3zm20.1-0.2c2.58 1.3 5.63 3.96 7.19 6.26 1.49 2.2 3.13 5.57 3.66 7.5 0.55 2.01 0.99 2.65 1.05 1.5 0.05-1.1-1.03-4.36-2.4-7.25-1.72-3.63-3.73-6.02-6.49-7.75-2.2-1.38-4.79-2.5-5.75-2.51-0.96 0 0.27 1.01 2.74 2.25zm748.01-0.03c-1.93 1.2-4.62 3.4-6 4.88-1.37 1.48-3.33 4.88-4.34 7.55-1.01 2.67-1.63 5.53-1.37 6.36 0.26 0.82 1-0.53 1.66-3 0.65-2.48 2.39-6.3 3.87-8.5 1.75-2.59 4.63-4.98 8.19-6.77 3.06-1.54 4.61-2.75 3.49-2.73-1.1 0.02-3.57 1.01-5.5 2.21zm19.5-0.06c2.2 1.19 4.46 2.65 5.03 3.25 0.56 0.61 2.01 2.67 3.23 4.6 1.45 2.3 2.21 2.9 2.22 1.75 0.01-0.96-2.23-4-4.98-6.75-3.03-3.03-5.89-5-7.25-5-1.79-0.01-1.43 0.43 1.75 2.15zm11.69 17.35c-0.01 1.65 0.34 5.25 0.76 8l0.78 5c0.06-8.53-0.29-12.13-0.73-13.5-0.78-2.43-0.8-2.42-0.81 0.5zm-766.92 8.24c0.12 4.53 0.57 8.24 0.98 8.25 0.41 0.01 0.74-3.03 0.73-6.74 0-3.71-0.45-7.43-0.98-8.25-0.66-1.02-0.89 1.14-0.73 6.74zm482.48 21.37c-2.06 1.04-4.58 2.68-5.6 3.64-1.01 0.96-2.6 3.32-3.52 5.25-0.92 1.92-1.61 4.85-1.54 6.5q0.14 3.06 0.59 1c0.25-1.1 0.96-3.58 1.59-5.5 0.63-1.93 2.27-4.73 3.66-6.23 1.38-1.5 4.33-3.27 6.54-3.92 2.22-0.66 6.06-1.5 8.53-1.89l4.5-0.69c-8.95-0.04-12.4 0.65-14.75 1.84zm29.61 0.37c0.51 1.46 0.85 9.26 0.76 17.34-0.15 13.72-0.31 14.83-2.39 16.96-1.67 1.7-1.85 2.27-0.73 2.27 0.82 0 2.08-1.02 2.78-2.27 0.93-1.66 1.2-6.86 1-19.2-0.17-10.46-0.67-17.07-1.32-17.33q-1.04-0.43-0.1 2.23zm-40.26 26.77c-0.05 1.51 0.63 4.21 1.52 6 0.89 1.79 2.8 4.25 4.25 5.46 1.45 1.22 3.53 2.24 4.63 2.26 1.43 0.03 1.01-0.49-1.5-1.83-1.93-1.03-4.38-3.39-5.45-5.25-1.08-1.87-2.27-4.74-2.65-6.39l-0.7-3zm27.4 12.28c-3.8 1.25-3.85 1.32-1 1.36 1.65 0.02 4.13-0.6 5.5-1.39 1.38-0.79 1.83-1.4 1-1.36-0.82 0.04-3.3 0.66-5.5 1.39z"/>
	</g>
</svg>